<?xml version="1.0" encoding="UTF-8"?>
<!-- Created with Inkscape (http://www.inkscape.org/) -->
<svg width="271.03mm" height="28.067mm" version="1.1" viewBox="0 0 271.03 28.067" xmlns="http://www.w3.org/2000/svg">
 <g transform="translate(52.899 -78.645)">
  <path transform="matrix(.26458 0 0 .26458 -52.899 70.228)" d="m0.5 32.311v105.08h1023.4v-105.08h-0.1582c-0.251 31.181-0.7657 53.25-1.4297 53.25-0.968 0-33.022-12.858-71.23-28.574l-59.996-24.676h-15.686l-10.777 6.7617c-9.3438 5.864-21.084 13.271-26.09 16.459l-9.1016 5.7969-8.3281-9.5664c-4.5807-5.261-9.2284-9.3668-10.328-9.127-1.0996 0.24038-12.276 7.5611-24.836 16.268-12.56 8.7063-23.689 15.994-24.73 16.195-1.0414 0.20145-9.1419-5.2362-18.002-12.082-8.86-6.8459-16.848-12.437-17.75-12.424-0.90194 0.01512-8.9617 6.3766-17.91 14.141-8.9485 7.764-17.189 14.126-18.312 14.139-1.1235 0.01512-7.6541-3.7243-14.514-8.3066-6.8595-4.5824-13.265-8.3301-14.236-8.3301-0.971 0-19.032 10.895-40.135 24.213l-38.367 24.213-8.4258-25.443c-4.6342-13.995-8.9815-25.758-9.6602-26.141-0.67869-0.38234-10.234 3.7816-21.234 9.2539-11 5.4724-21.531 10.462-23.4 11.086-2.2765 0.76002-8.5129-7.1192-18.887-23.855-6.56-10.583-12.699-19.624-15.695-23.25h-3.582c-4.4635 5.0122-16.882 21.331-30.922 40.766-16.889 23.377-31.631 41.939-32.76 41.244-1.1292-0.6949-7.1571-10.084-13.396-20.861-6.2393-10.777-12.328-19.4-13.529-19.162-1.2013 0.23811-14.785 10.815-30.186 23.506l-28 23.074-10.734-13.076c-5.9038-7.1921-14.193-17.411-18.42-22.711-4.227-5.2999-8.7327-9.4253-10.014-9.166-1.281 0.25928-20.563 9.3306-42.848 20.158-22.285 10.827-41.513 19.077-42.73 18.33-1.217-0.74619-11.193-10.728-22.168-22.184-10.975-11.456-20.356-21.091-20.844-21.408-0.48796-0.3171-36.773 9.9934-80.633 22.912-43.86 12.918-80.561 23.488-81.559 23.488-0.90607 0-1.629-37.363-1.7598-84.91z" fill="#141b41" fill-opacity=".97647" stroke="#141b41" stroke-width=".99774"/>
 </g>
</svg>
