<?xml version="1.0" encoding="UTF-8"?>
<!-- Created with Inkscape (http://www.inkscape.org/) -->
<svg width="40.182mm" height="5.487mm" version="1.1" viewBox="0 0 40.182 5.487" xmlns="http://www.w3.org/2000/svg">
 <g transform="translate(-61.698 -77.806)">
  <path d="m63.461 78.839c0 0.80798 0.27049 2.2163-0.13361 2.9342-0.31536 0.56024-1.7094 0.29295-1.6268 1.0306 0.09483 0.84737 1.787 0.39306 2.2089 0.11561 1.0798-0.71015 0.68486-2.6272 0.68486-3.7404 0-0.40522 0.14976-1.1736-0.35677-1.3239-0.83746-0.24856-1.9338 0.63258-0.77651 0.98393m3.3998-1.02v5.4397h0.22666v-5.4397h-0.22666m9.9729 0.05867c-3.554 0.75916-2.3666 6.0517 1.1333 5.3053 3.5871-0.76507 2.3681-6.0532-1.1333-5.3053m4.3065 3.9078-0.33998 1.02c1.2082 0.46528 5.4146 0.74354 4.1571-1.8128-0.51564-1.0483-1.6782-0.70164-2.4337-1.3291-0.79296-0.65841 0.78831-0.63416 1.1096-0.55553 0.26428 0.06466 0.52709 0.12926 0.79352 0.18425l0.45331-1.02c-1.223-0.54134-5.1466-0.62104-3.9304 1.8115 0.52573 1.0516 1.7902 0.68553 2.5278 1.3606 0.71691 0.65609-1.0435 0.62485-1.3172 0.56603-0.3427-0.07362-0.67306-0.17398-1.02-0.22499m-8.6129-3.8532c0 0.88186 0.40164 3.1174-0.19742 3.8035-0.41546 0.47576-2.0423-0.8954-2.1079 0.06646-0.1046 1.5355 2.3571 1.7693 3.1487 0.86562 0.95728-1.0928 0.51655-3.3888 0.51655-4.7356h-1.3599m13.259 0v5.2131h1.3599l0.33998-1.5866h0.11333c0.90583 1.291 1.5397 1.5866 3.0599 1.5866l-2.2666-2.6065v-0.11333l2.2666-2.4932c-1.8109 0-2.2833 0.80664-3.5132 2.0399v-2.0399h-1.3599m5.2131 0c0 1.2542-0.32525 3.0513 0.27675 4.193 0.76905 1.4586 3.3755 1.5338 4.2305 0.11167 0.69391-1.1541 0.36582-3.0143 0.36582-4.3047h-1.3599c0 0.9957 0.27324 2.4706-0.11435 3.3981-0.31686 0.75813-1.357 0.91244-1.8415 0.21607-0.55429-0.79676-0.19742-2.6703-0.19742-3.6142h-1.3599m5.4397 5.2131 1.2876-0.11648 1.4322-2.9434c0.30621 0.7464 0.71589 2.4994 1.4046 2.9434 0.34248 0.22084 0.92543 0.11648 1.3153 0.11648-0.54284-1.3055-1.1885-2.5685-1.7782-3.8532-0.17724-0.386-0.36072-1.2192-0.85075-1.3173-0.5799-0.11605-0.82492 0.69143-0.99751 1.0906-0.58387 1.3501-1.4082 2.6629-1.8132 4.0798m-19.266-4.0408c1.7968-0.32323 2.3307 2.4782 0.56664 2.8624-1.8665 0.40645-2.4237-2.5283-0.56664-2.8624z" fill="#7ee081"/>
 </g>
</svg>
