<?xml version="1.0" encoding="UTF-8"?>
<!-- Created with Inkscape (http://www.inkscape.org/) -->
<svg width="62.337mm" height="55.798mm" version="1.1" viewBox="0 0 62.337 55.798" xmlns="http://www.w3.org/2000/svg">
 <g transform="translate(-176.22 -110.51)">
  <path d="m196.16 166.25c-0.0815-0.0346-0.14842-0.2685-0.14874-0.51983-2.6e-4 -0.29188-0.0967-0.57607-0.26668-0.78671-0.41456-0.51374-2.4403-2.3332-2.8391-2.5501-0.51933-0.28239-0.26336-0.51739 0.34689-0.31847 0.48924 0.15946 2.9892 2.195 3.2914 2.68 0.56066 0.89974 0.33011 1.798-0.38373 1.4952zm3.4865-0.69638c-0.0899-0.15423-0.35881-0.6627-0.59746-1.13-0.70798-1.3861-1.3028-2.1347-3.8059-4.7898-1.3086-1.388-2.3351-2.5237-2.2811-2.5237 0.49199 0 4.9191 4.1685 5.969 5.6204 0.70019 0.96824 1.526 2.6353 1.4324 2.8918-0.11005 0.30155-0.52409 0.26189-0.71689-0.0687zm-7.8097-0.0385c-0.17763-0.10133-0.37637-0.28919-0.44164-0.41743-0.1934-0.37997 0.27266-0.40743 1.0197-0.0601 0.55165 0.25651 0.63374 0.33483 0.51234 0.48863-0.18318 0.23207-0.67291 0.22709-1.0904-0.0111zm9.0053-2.1425c-0.26784-0.31676-1.8671-3.3056-1.8672-3.4895-1.6e-4 -0.45236 0.89567 0.32303 1.3739 1.1891 0.17821 0.32274 0.42484 0.72702 0.54806 0.89836 0.51546 0.71684 0.81372 1.2892 0.75528 1.4493-0.0881 0.24153-0.5907 0.21222-0.81009-0.0472zm2.0081-0.57275c-0.061-0.68699-0.35038-1.8221-0.67208-2.6364-0.0542-0.13708-0.22012-0.61378-0.36881-1.0593-0.14868-0.44555-0.49525-1.3238-0.77015-1.9516-0.93856-2.1437-1.3799-3.296-1.2957-3.3829 0.17102-0.17624 0.80433 0.8354 1.6502 2.6359 0.8093 1.7227 0.87336 1.8215 0.92916 1.4332 0.033-0.2294 0.0706-2.8268 0.0836-5.772 0.013-2.9452 0.0452-5.3916 0.0715-5.4363 0.0263-0.0448 0.19561-0.11272 0.37623-0.15106 0.18063-0.0383 0.42538-0.10911 0.5439-0.15729 0.20667-0.0841 0.21298 0.1106 0.1542 4.7582-0.0337 2.6652-0.064 5.6762-0.0673 6.691l-6e-3 1.8452-0.28806-0.34968c-0.51002-0.6191-0.55214-0.20352-0.10351 1.0212 0.2725 0.74391 0.4328 1.4255 0.47599 2.0239 0.0689 0.95412-0.0421 1.2787-0.43736 1.2787-0.16589 0-0.21891-0.15211-0.27563-0.79084zm8.0141 0.25914c0.15306-1.1742 0.94189-2.9582 2.4376-5.5127 0.64669-1.1045 2.9969-3.8222 3.1584-3.6524 0.12922 0.13586-0.29401 0.84294-1.0549 1.7624-1.5786 1.9075-2.7728 4.0601-3.4435 6.2068-0.48819 1.5626-0.54031 1.6678-0.84485 1.7065-0.31972 0.0406-0.32348 0.033-0.25263-0.51059zm-2.5791 0.17846c-0.046-0.15235 0.22413-2.2016 0.29019-2.2016 9e-5 0-0.54659 0.0188-1.2148 0.0416l-1.215 0.0416-5e-3 -7.3323c-3e-3 -4.0327-0.0438-7.4856-0.0907-7.6731-0.0921-0.36819-0.63153-0.61894-0.78176-0.36333-0.0451 0.0768-0.0369 0.63117 0.0182 1.232s0.0667 2.887 0.0258 5.0804c-0.041 2.1934-0.076 5.093-0.078 6.4435l-3e-3 2.4555-0.37197-0.0743c-0.20458-0.0409-0.39697-0.0972-0.42753-0.12523-0.0596-0.0546-0.0167-8.8238 0.0618-12.619 0.0413-1.9959 0.074-2.3146 0.24781-2.4169 0.11014-0.0648 1.5764-0.66442 3.2583-1.3324 2.5855-1.0269 3.0669-1.1831 3.1153-1.0104 0.18394 0.65622 0.31776 4.0445 0.26153 6.6225-0.0719 3.2962-0.0715 3.1081-0.0112 5.7328 0.0244 1.0625 0.0469 2.086 0.05 2.2745 4e-3 0.21895 0.0698 0.34272 0.18336 0.34272 0.25487 0 0.22361 0.13377-0.18153 0.77692-0.35266 0.55983-1.1408 1.3015-1.2552 1.1812-0.0799-0.084 0.22288-1.2689 0.71906-2.8138 0.314-0.97763 0.38587-1.349 0.29545-1.5267-0.0657-0.12914-0.16369-0.23479-0.21771-0.23479-0.1123 0-0.95297 2.4734-1.31 3.8542-0.1316 0.50903-0.32267 1.5161-0.4246 2.2378-0.10192 0.72178-0.24259 1.3849-0.31258 1.4735-0.18598 0.23564-0.54561 0.19688-0.62537-0.0674zm1.0605-7.0854c0-1.0908-0.0444-1.5528-0.16388-1.704-0.28378-0.35912-0.44855-0.0183-0.52229 1.0803-0.0979 1.4581 0.12613 2.3107 0.56764 2.1606 0.0703-0.0238 0.11853-0.6491 0.11853-1.5369zm-1.6737-0.12501c0.12486-0.62474 0.0424-0.91091-0.26248-0.91091-0.17686 0-0.25141 0.14012-0.34807 0.65413-0.14106 0.75015-0.10411 0.87058 0.2508 0.81738 0.19406-0.0291 0.28042-0.1637 0.35975-0.5606zm2.813-0.8123c0.2108-0.41415 0.057-3.8931-0.18964-4.2889-0.46627-0.74827-0.57818-0.22032-0.41839 1.9737 0.19248 2.6428 0.27716 2.9652 0.60803 2.3151zm-2.9054-0.86011c0.15577 0.0114 0.052-0.77107-0.12825-0.96687-0.35491-0.38549-0.54671 0.2312-0.29146 0.93713 0.0898 0.24845 0.15233 0.30068 0.22067 0.18439 0.0524-0.0892 0.142-0.1588 0.19904-0.15465zm-0.0397-4.7354c-0.0284-0.68099-0.22177-1.3576-0.38799-1.3576-0.14473 0-0.24583 0.7868-0.16124 1.2548 0.19497 1.0787 0.59304 1.1532 0.54923 0.10274zm1.4559 0.0965c0.0382-0.15992 0.0525-1.2789 0.0319-2.4866-0.0275-1.6084-0.0793-2.2392-0.19364-2.3576-0.12819-0.13277-0.18807-0.11708-0.3346 0.0875-0.24426 0.34112-0.19177 4.5217 0.0608 4.8414 0.2238 0.28331 0.35374 0.25802 0.43557-0.0848zm-1.4872-2.3265c0-0.13848-0.079-0.24924-0.17779-0.24924-0.18044 0-0.24312 0.26363-0.0988 0.4154 0.15026 0.15801 0.27656 0.0821 0.27656-0.16616zm8.1781 15.699c0-0.71435 1.2816-3.0362 2.4738-4.4817 1.3033-1.5802 3.5083-3.7401 3.8183-3.7401 0.22471 0-0.10576 0.43661-1.3207 1.7449-1.3664 1.4714-2.6585 3.0556-3.1 3.801-0.16241 0.27419-0.48968 0.97057-0.72726 1.5475-0.23759 0.57692-0.52046 1.1518-0.62861 1.2774-0.29871 0.34708-0.51546 0.28442-0.51546-0.14899zm4.2906-0.89374c-0.0782-0.0823-0.14223-0.22426-0.14223-0.31556 0-0.31277 1.8203-2.0804 2.5779-2.5032 1.07-0.59727 0.96634-0.27239-0.35882 1.1241-0.60479 0.6373-1.2178 1.313-1.3622 1.5015-0.28456 0.37132-0.49186 0.42738-0.71459 0.19317zm-18.873-1.0032c-0.1305-0.22278-0.33764-0.74155-0.4603-1.1528-0.12266-0.41127-0.49741-1.4698-0.83277-2.3522-0.33537-0.88241-0.58025-1.6354-0.54418-1.6734 0.20103-0.21137 0.84466 0.82696 1.6395 2.645 1.0859 2.4838 1.0872 2.4877 0.84886 2.7383-0.27265 0.28668-0.38359 0.25175-0.65115-0.20497zm13.165-0.77296c-0.18412-0.23325-0.0871-0.55004 0.48657-1.5895 0.48924-0.8864 0.90167-1.3012 1.0933-1.0997 0.0713 0.075-0.0197 0.38378-0.24757 0.84008-0.19817 0.39685-0.42437 0.93236-0.50266 1.19-0.14073 0.46316-0.40604 0.84011-0.5913 0.84011-0.0526 0-0.15982-0.0814-0.23837-0.18098zm1.625-0.90194c-0.11408-0.0314-0.20742-0.12998-0.20742-0.21918 0-0.21719 1.7528-2.8106 1.8996-2.8106 0.0634 0 0.11535 0.0477 0.11535 0.10605 0 0.25164-0.28671 0.97348-0.47764 1.2026-0.11427 0.13708-0.37433 0.59975-0.57791 1.0281-0.20358 0.42842-0.40938 0.77243-0.45733 0.76449-0.048-8e-3 -0.18053-0.0401-0.2946-0.0715zm-3.7152-3.826c-0.1981-0.54282 0.91478-2.794 1.9627-3.9704 0.89732-1.0073 1.1882-0.98033 0.49201 0.0455-0.70743 1.0425-1.2293 2.0807-1.5588 3.1009-0.24207 0.74953-0.35384 0.9426-0.56414 0.97461-0.15343 0.0233-0.29112-0.0392-0.3318-0.15065zm6.4709-0.64198c0-0.56095 1.1658-2.1388 1.8753-2.538 0.38336-0.21574 0.32055-0.0196-0.32893 1.0264-0.32291 0.52012-0.67096 1.1162-0.77345 1.3246-0.20397 0.41473-0.77289 0.5524-0.77289 0.18701zm-41.504-0.44162c-0.54199-0.37275-0.55599-0.39862-0.62244-1.1513-0.29391-3.329-0.38634-10.193-0.20589-15.289 0.0473-1.3366 0.0578-4.1688 0.0233-6.2936-0.0345-2.1249-0.0512-3.8849-0.0371-3.9112 0.0141-0.0262 0.2914 0.16534 0.61619 0.42579 0.53973 0.43278 0.59674 0.528 0.66278 1.1071 0.0397 0.34843 0.0906 5.3724 0.11295 11.164 0.0224 5.792 0.0809 11.386 0.13011 12.432 0.0528 1.122 0.0454 1.8999-0.018 1.8991-0.0591 0-0.35691-0.1731-0.66186-0.38283zm1.754-0.14539c-0.22889-1.5925-0.43834-25.187-0.22554-25.405 0.051-0.0524 0.91937-0.35513 1.9298-0.67284 1.0104-0.31771 2.7172-0.87849 3.7928-1.2462 1.0756-0.36769 2.409-0.78883 2.9631-0.93588 0.5541-0.14706 2.3675-0.73261 4.0298-1.3012 1.6623-0.56859 4.8091-1.635 6.9929-2.3698 4.3795-1.4736 5.622-1.9035 8.9485-3.0966 7.4962-2.6884 16.473-5.7006 18.977-6.3674 1.7441-0.46455 4.7763-1.196 4.9581-1.196 0.086 0 0.3091 0.21029 0.49579 0.46733 0.2806 0.38635 0.33505 0.5737 0.31412 1.0808-0.0232 0.56131 0.0165 0.66193 0.46684 1.184 0.72864 0.84461 0.9976 0.93552 2.0748 0.70128 1.0698-0.23265 2.1185-0.24619 2.522-0.0326 0.38846 0.2056 0.43474 0.68209 0.12523 1.2893-0.15714 0.3083-0.24375 0.71033-0.24375 1.1315 0 0.5625-0.0419 0.68214-0.30192 0.86127-0.61131 0.42116-0.0728 1.3948 0.92606 1.6744 0.59023 0.16523 0.91667 0.43759 0.91667 0.76486 0 0.12925-0.11116 0.59682-0.24702 1.039-0.18564 0.60423-0.41387 0.9984-0.91856 1.5864-1.6261 1.8946-1.7625 2.1041-1.8472 2.8384l-0.0796 0.69014 0.65727 0.65958c0.7017 0.70418 0.72643 0.76768 0.52991 1.3604-0.11032 0.33279-0.0786 0.48922 0.23704 1.1695 0.20043 0.43198 0.36441 0.84616 0.36441 0.9204 0 0.43392-0.39953 1.4511-0.6332 1.6121-0.14753 0.10163-1.3855 0.52462-2.751 0.93996-1.3655 0.41535-3.4694 1.1722-4.6754 1.6818-1.206 0.50967-4.9928 1.9044-8.4152 3.0993-5.735 2.0024-9.5606 3.4586-14.934 5.6845-3.1773 1.3162-4.9586 1.9867-10.489 3.9485-2.8031 0.99428-5.4165 1.9495-5.8077 2.1228s-1.3246 0.52493-2.0744 0.78152c-1.7345 0.59354-4.0527 1.6332-6.4282 2.8829-1.0259 0.53972-1.9123 0.98131-1.9697 0.98131-0.0574 0-0.13857-0.23834-0.18044-0.52967zm2.8302-2.0165c0.27943-0.23707 0.32487-0.3346 0.21221-0.45546-0.11339-0.12165-0.24442-0.0835-0.62648 0.18235-0.4752 0.33065-0.53577 0.57658-0.14172 0.57537 0.11023 0 0.36043-0.13637 0.55599-0.30226zm0.77041-2.5551c0.48891-0.22421 0.99411-0.51408 1.1227-0.64421 0.23266-0.23545 0.23266-0.23651 0-0.22502-0.45832 0.0228-3.1841 1.0509-3.2348 1.2203-0.09 0.30052 1.1352 0.0968 2.1122-0.3511zm3.1093-0.26646c0.35275-0.14195 0.79752-0.39804 0.98837-0.56912l0.34699-0.31104-0.53336 0.0733c-0.62315 0.0857-2.0499 0.77988-1.9505 0.94903 0.10632 0.18087 0.45185 0.13809 1.1485-0.14221zm5.1012-2.4357c0.40502-0.17925 2.3368-0.93035 4.2929-1.6691 5.7107-2.1568 10.49-4.0197 14.935-5.821 4.907-1.9888 8.7009-3.4938 11.556-4.5841 2.3046-0.88003 5.7124-2.3432 6.1505-2.6408 0.27888-0.18942 0.28235-0.21519 0.20641-1.5299-0.0848-1.4688-0.33407-2.556-0.61162-2.6679-0.0984-0.0397-0.35134 4e-3 -0.56205 0.0974-1.3135 0.58134-2.3314 1.0035-3.5833 1.4862-0.78225 0.30162-2.649 1.0803-4.1483 1.7304-5.1439 2.2304-9.338 3.865-16.297 6.3514-3.7654 1.3454-6.7348 2.4566-9.1856 3.4372-0.84745 0.33907-2.0742 0.80013-2.726 1.0246-0.65188 0.22445-1.2727 0.488-1.3796 0.58569-0.15569 0.14226-0.21136 0.54784-0.28011 2.0404-0.12045 2.6152 0.061 2.8551 1.6328 2.1595zm-0.55295-1.0712c-0.12911-0.67881-0.0812-2.0542 0.0761-2.1861 0.37404-0.3135 5.6902-2.4274 17.156-6.8219 2.9359-1.1252 2.6075-1.123 2.6075-0.0177 0 0.51425 0.0503 1.0741 0.11175 1.244 0.0889 0.24577 0.0707 0.3261-0.0889 0.39216-0.74485 0.3084-5.818 2.3019-11.52 4.5267-3.6831 1.4371-7.0508 2.7544-7.4838 2.9273l-0.78724 0.31427zm-6.8115 0.71991c1.7356-0.53115 2.9067-1.2053 1.7469-1.0054-1.4031 0.24175-3.8095 1.2912-2.9914 1.3046 0.13939 3e-3 0.69941-0.13234 1.2445-0.29916zm15.152-0.78896c1.8554-0.6654 2.7726-1.0576 3.0223-1.2921 0.19715-0.18524 0.32163-0.3755 0.27663-0.42283-0.0792-0.0832-0.74213 0.14017-4.7775 1.6098-2.1708 0.79055-2.4258 0.91781-2.1805 1.0879 0.26474 0.18354 0.8316 0.0313 3.6591-0.98279zm-17.302-0.46173c0.97547-0.0849 2.9468-0.63513 3.2254-0.90019 0.2124-0.20214 0.28953-0.53808 0.12292-0.53541-0.0489 0-0.60842 0.16613-1.2434 0.36745-0.63498 0.2013-1.7817 0.46006-2.5483 0.57505-1.417 0.21251-1.8462 0.37055-1.5475 0.56991 0.0846 0.0565 0.39378 0.0774 0.68712 0.0465 0.29335-0.0309 0.88004-0.0864 1.3038-0.12327zm2.228-3.2396c0.0866-0.0911 0.15685-6.2244 0.0832-7.2659-0.0971-1.3736-0.22081-1.5214-0.98719-1.1788l-0.48082 0.21489 0.0794 7.8411 0.3258 0.2947c0.24169 0.21857 0.40561 0.2736 0.63483 0.21312 0.16996-0.0449 0.32511-0.0985 0.34477-0.11914zm2.3708-0.83947c0.10162-0.10684 0.144-0.93406 0.14844-2.8976 7e-3 -3.1942-0.1384-3.1523 1.3697-0.39349 0.80412 1.4711 1.0331 1.7962 1.4021 1.9912 0.29348 0.1551 0.48062 0.19148 0.55934 0.10869 0.24764-0.26037 0.34585-1.191 0.45571-4.3182 0.12988-3.6968 0.10252-3.8751-0.59447-3.8751h-0.41324l-0.0593 2.9497c-0.0326 1.6223-0.0917 2.9838-0.13142 3.0254-0.0397 0.0416-0.45252-0.71117-0.91742-1.6728-1.3049-2.6992-1.7448-3.3675-2.2167-3.3675-0.14363 0-0.31548 0.0701-0.38191 0.15579-0.15239 0.19659-0.37495 7.924-0.23689 8.2254 0.11685 0.255 0.79522 0.30078 1.0161 0.0685zm26.159-0.7977c0.81435-0.31533 1.4806-0.62756 1.4806-0.69384 0-0.0662-0.0933-0.0922-0.20742-0.0576-0.11408 0.0346-0.76744 0.2155-1.4519 0.402-1.1585 0.31568-1.6593 0.5624-1.6593 0.81746 0 0.19667 0.3549 0.10628 1.838-0.46805zm-17.17-2.1126c0.30083-0.31634 0.30207-0.32647 0.2262-1.8383-0.042-0.83608-0.0338-1.5811 0.018-1.6555 0.0519-0.0744 0.44234-0.33859 0.86767-0.587 0.97473-0.56928 1.3262-0.95621 1.7211-1.8948 0.72151-1.715-0.13017-3.105-1.9018-3.104-0.57108 0-0.8606 0.0812-1.47 0.41082l-0.75888 0.41039 0.077 1.9515c0.0423 1.0733 0.0772 2.9149 0.0774 4.0924 2.7e-4 1.7797 0.0318 2.174 0.18665 2.3368 0.27039 0.28432 0.6115 0.24075 0.95669-0.12221zm0.11076-4.6366c-0.0377-0.0396-0.0685-0.75766-0.0685-1.5957 0-1.6947-0.01-1.675 0.83936-1.675 0.75069 0 1.0289 0.43659 0.95304 1.4955-0.0462 0.64561-0.27689 0.98375-0.96499 1.4148-0.37976 0.23786-0.72128 0.40008-0.75894 0.36047zm23.249 4.2587c1.0673-0.52089 1.4466-0.88083 0.77206-0.73274-0.65483 0.14375-2.2746 0.71038-2.4782 0.86693-0.17849 0.13724-0.18567 0.19082-0.0489 0.36418 0.19257 0.24397 0.29145 0.2159 1.755-0.49837zm-18.01-1.695c0.10282-0.10814 0.11989-0.64728 0.0637-2.012-0.071-1.7245-0.0603-1.877 0.14295-2.0333 0.12082-0.0929 0.28178-0.16891 0.35768-0.16891s0.42161 0.67659 0.76825 1.5035c0.34664 0.82693 0.73957 1.5841 0.87318 1.6824 0.3227 0.23767 0.89015 0.22987 0.97896-0.0135 0.0386-0.10578-0.12949-0.65259-0.37355-1.2151-0.24406-0.56253-0.56928-1.3155-0.72271-1.6732l-0.27895-0.65047 0.45998-0.55883c0.25299-0.30737 0.52484-0.76547 0.6041-1.018 0.18271-0.58211 0.072-1.6275-0.21636-2.0432-0.31147-0.44905-1.0545-0.79857-1.6812-0.79089-0.63148 8e-3 -1.7802 0.4446-2.2236 0.84566l-0.31321 0.28326 0.14119 1.6683c0.0777 0.9176 0.17629 2.6422 0.21918 3.8324l0.078 2.1641 0.36654 0.16777c0.45903 0.21013 0.5799 0.21492 0.7559 0.0299zm-0.21158-6.1578v-1.1848l0.41102-0.18061c0.49925-0.21934 1.1498-0.23437 1.3431-0.031 0.21877 0.23003 0.16834 1.1125-0.0889 1.5561-0.24694 0.42584-0.46167 0.57856-1.1971 0.8514l-0.46813 0.17367zm24.93 5.4109c1.4982-0.47897 5.8406-2.2549 6.0564-2.4769 0.42222-0.43447-1.0048-0.0272-3.6967 1.055-1.0915 0.43882-2.5672 1.0134-3.2793 1.2768s-1.3164 0.54853-1.3429 0.63359c-0.0652 0.2095 0.37952 0.11348 2.2626-0.4885zm-18.063-1.8428c0.76746-0.41169 1.243-1.119 1.5326-2.2793 0.58114-2.3286 0.12294-4.491-1.2361-5.8334-0.38392-0.37925-1.053-0.38129-1.632-5e-3 -1.4813 0.9626-2.1257 4.8387-1.1418 6.8672 0.34711 0.71554 1.2721 1.4779 1.8085 1.4905 0.11667 3e-3 0.41762-0.10523 0.66877-0.23995zm-0.83692-1.0647c-0.37407-0.21373-0.64637-0.88199-0.82636-2.028-0.15396-0.98028-0.0685-1.7084 0.43784-3.7312 0.0534-0.21347 0.63959-0.346 0.86602-0.1958 0.10368 0.0688 0.3221 0.39818 0.48538 0.73203 0.26836 0.54866 0.29689 0.75096 0.29689 2.1054 0 1.3594-0.0288 1.562-0.31067 2.1839-0.17087 0.37701-0.34254 0.78359-0.38149 0.90353-0.0844 0.26011-0.1582 0.26403-0.56761 0.0301zm6.2378-1.1704c0.26075-0.12721 0.65408-0.43029 0.87407-0.67353l0.39997-0.44219-0.0874-1.9606c-0.0827-1.8547-0.1031-1.9772-0.3782-2.2664-0.22209-0.23352-0.37091-0.28893-0.6298-0.23447-0.50147 0.10543-1.3953 0.57287-1.466 0.76663-0.0928 0.25437 0.23418 0.47154 0.62036 0.41193l0.34263-0.0529 0.0855 1.7445c0.0781 1.5948 0.0672 1.7585-0.12715 1.908-0.31708 0.24379-0.5818 0.20013-0.99309-0.16377-1.1779-1.0422-1.2658-3.5379-0.19682-5.5908 0.43228-0.83021 0.78918-1.0013 1.3224-0.63392 0.342 0.23564 0.64317 0.2539 0.66243 0.0402 0.0323-0.35806-0.0422-0.54472-0.32305-0.81008-0.5924-0.55962-2.032-0.23667-2.7075 0.60738-0.69882 0.87329-1.0768 3.2848-0.7346 4.6873 0.3743 1.5344 0.9814 2.4064 1.914 2.7491 0.52716 0.19375 0.89367 0.17148 1.4223-0.0864zm19.974-0.26681c1.2042-0.27694 2.3324-0.53554 2.5071-0.57465 0.17471-0.0391 0.43735-0.20505 0.58365-0.36883l0.26601-0.29773h-0.26815c-0.51267 0-5.3744 1.222-5.6977 1.4322-0.21214 0.13788-0.12844 0.31263 0.14974 0.31263 0.14844 0 1.2552-0.22661 2.4594-0.50358zm-42.766-0.75562c0.24748-0.13277 0.44997-0.27591 0.44997-0.31811 0-0.1316-1.0529 0.0679-1.4243 0.26985-0.19445 0.1057-0.35353 0.2531-0.35353 0.32753 0 0.18587 0.75792 0.0265 1.3279-0.27927zm26.306-0.0613c0.0551-0.0358 0.1002-0.95364 0.1002-2.0396v-1.9745l0.34992-0.12827c0.38339-0.14052 0.32992-0.21479 1.4904 2.0698 0.36359 0.71575 0.69992 0.90493 1.1908 0.66977 0.15816-0.0758 0.28757-0.23162 0.28757-0.34629 0-0.22823-0.93331-1.9902-1.3901-2.6244l-0.2862-0.3973 0.47038-0.44686c0.25871-0.24574 0.55586-0.63624 0.66035-0.86775 0.50932-1.1286-0.0402-2.3581-1.1982-2.6813-0.52019-0.14515-0.74746-0.11985-1.7824 0.19826-1.0797 0.33189-1.0516 0.21677-1.1256 4.6167-0.0453 2.6967-0.0258 3.8888 0.0656 4.0066 0.12306 0.15857 0.89469 0.12224 1.1674-0.055zm0.0751-6.0636c-0.0276-0.56549-0.0292-1.0936-4e-3 -1.1736 0.0528-0.16513 1.138-0.35491 1.327-0.23204 0.20343 0.13219 0.14076 1.0382-0.10715 1.5492-0.19169 0.3951-0.80459 0.88458-1.1076 0.88458-0.0321 0-0.081-0.46268-0.10858-1.0282zm-31.917 5.1361c3.6838-1.2655 6.0035-2.269 6.7559-2.9225 0.22818-0.1982 0.22104-0.20362-0.19101-0.14547-0.23543 0.0333-1.1688 0.38156-2.0742 0.77401-2.0709 0.89766-4.9482 1.9334-6.5574 2.3605-0.68035 0.18058-1.3337 0.38275-1.4519 0.44924-0.47587 0.26781-0.10447 0.51065 0.61476 0.40201 0.22815-0.0345 1.5349-0.44747 2.9038-0.91774zm7.6448-0.80528 0.27836-0.31157-0.46512 3e-3c-0.25582 3e-3 -0.54513 0.0582-0.64291 0.127-0.15388 0.10827-0.14685 0.14991 0.0523 0.30964 0.31837 0.25541 0.45579 0.23297 0.77739-0.127zm30.244-0.96118c0.51538-0.28874 1.025-0.62722 1.1326-0.75218 0.18265-0.2122 0.17842-0.24514-0.0643-0.50033-0.25617-0.26935-0.27015-0.27035-0.99998-0.0697-0.4071 0.11192-0.749 0.19476-0.75979 0.18408-0.0108-0.0106-0.0552-0.41196-0.0988-0.89176l-0.0792-0.87238 0.69139-0.37391c0.72003-0.38933 0.85061-0.6236 0.69981-1.2553-0.10763-0.45092-0.45765-0.59205-0.94135-0.37954-0.40459 0.17775-0.40505 0.17756-0.4768-0.19965-0.0973-0.51176-0.0875-1.2501 0.0189-1.4208 0.0479-0.0768 0.41934-0.31541 0.82544-0.53018 0.4061-0.21476 0.82982-0.53723 0.94161-0.71662 0.19338-0.31033 0.19256-0.33438-0.0168-0.4953-0.28831-0.22169-0.61748-0.13245-1.8246 0.49461-0.58028 0.30144-1.0408 0.62704-1.1112 0.7856-0.0839 0.18892-0.0516 1.2886 0.10667 3.6376 0.29131 4.323 0.27618 4.2971 1.9563 3.3558zm9.8205 0.26829c0.95143-0.23487 1.5857-0.60685 1.3885-0.81431-0.0761-0.08-0.9078 0.0791-2.4878 0.47596-0.66563 0.16719-1.0371 0.32038-1.0371 0.42775 0 0.25003 0.91678 0.21169 2.1364-0.0894zm-37.44-1.6085c0.41475-0.20336 1.2874-0.51567 1.9393-0.69408 2.2933-0.62762 4.7628-1.4605 5.0466-1.7021l0.28693-0.24421-0.29631 0.0565c-0.80805 0.15398-7.6208 2.3443-8.0926 2.6018-0.25032 0.13663-0.16154 0.35177 0.14517 0.35177 0.11921 0 0.55608-0.16637 0.97082-0.36971zm32.316-0.75067c0.84589-0.4037 1.0545-1.358 0.5307-2.4272-0.10191-0.20799-0.49484-0.73393-0.87318-1.1687-0.79559-0.9143-1.1536-1.7321-0.98111-2.2414 0.10267-0.30313 0.17087-0.33424 0.76041-0.34673 0.9411-0.0199 0.94393-0.0209 0.94393-0.34907 0-0.41478-0.62321-0.94578-1.11-0.94578-0.46928 0-1.2245 0.39169-1.4827 0.76899-0.29606 0.43262-0.46997 0.98819-0.4799 1.5331-8e-3 0.46112 0.0596 0.5655 0.99365 1.5258 1.1233 1.1548 1.3947 1.738 1.1053 2.375-0.29992 0.66003-1.1577 0.52703-1.4434-0.22378-0.19936-0.52393-0.23767-0.5533-0.87197-0.66855-0.3688-0.067-0.38518-0.0529-0.3846 0.33197 1e-3 0.69802 0.69404 1.6372 1.4398 1.9514 0.46247 0.19484 1.3147 0.14192 1.8531-0.11501zm4.1792-1.1545c0.58247-0.41272 0.86037-0.99406 0.87107-1.8222 0.0115-0.89096-0.37735-1.6324-1.2912-2.462-0.68189-0.61902-0.96551-1.2055-0.83909-1.7352 0.0927-0.38827 0.48575-0.40433 0.8595-0.0351 0.2266 0.22384 0.32104 0.24689 0.55418 0.13518 0.37575-0.18002 0.46275-0.58732 0.19869-0.9302-0.17445-0.22653-0.36263-0.284-1.067-0.32586-0.99748-0.0592-1.332 0.081-1.5977 0.66982-0.39196 0.86852-0.14106 1.7658 0.76504 2.7361 0.69075 0.73967 0.94819 1.3283 0.94819 2.168 0 0.96409-0.61015 1.3508-1.151 0.72951-0.23708-0.27236-0.28813-0.40237-0.44036-1.1216-0.0882-0.41669-0.51521-0.469-0.83122-0.10184-0.2685 0.31195-0.16808 0.82045 0.29467 1.4922 0.57169 0.82984 1.9698 1.1392 2.7262 0.60325zm-25.293-1.2947c1.0234-0.44286 1.5721-0.79235 1.244-0.79235-0.2248 0-2.5204 0.60815-2.8442 0.75349-0.229 0.10279-0.25285 0.1579-0.13364 0.30895 0.22241 0.28178 0.59143 0.22431 1.7339-0.27009zm3.7157-1.7947c0.87968-0.28707 2.0149-0.85725 2.0149-1.012 0-0.17177-0.38708-0.12094-1.5974 0.20973-1.5585 0.4258-2.1634 0.7742-1.6916 0.97436 0.26698 0.11329 0.49336 0.0827 1.2741-0.17206zm25.718-0.55372c0.3622-0.34465 0.29285-0.43807-0.3241-0.43656-1.2454 3e-3 -1.6769 0.20407-1.3038 0.60746 0.21447 0.2319 1.3274 0.11506 1.6279-0.1709zm-20.734-1.5608c0.6429-0.13774 1.6113-0.42207 2.152-0.63183 0.54072-0.20973 1.5696-0.60555 2.2864-0.87958 1.2208-0.4667 1.7191-0.75525 1.7191-0.99549 0-0.0559-0.60002 0.12798-1.3334 0.40859-2.3424 0.89633-3.3184 1.2017-5.0498 1.5801-0.93068 0.20339-1.7271 0.40654-1.7697 0.45141-0.11282 0.11864 0.2257 0.31316 0.5488 0.31538 0.15273 3e-3 0.80371-0.1108 1.4466-0.24857zm20.052-0.76917c1.0152-0.40722 1.1532-0.52761 0.82-0.71512-0.17118-0.0963-0.49513-0.0336-1.3367 0.25911-1.2986 0.45154-1.4372 0.55068-1.117 0.7992 0.25562 0.19836 0.31456 0.18597 1.6337-0.34319zm-8.6009-1.9512c0.96482-0.28133 1.6242-0.58515 1.8266-0.84167 0.20916-0.265-0.11102-0.22765-1.6168 0.18876-1.5324 0.42373-3.2799 1.1071-3.196 1.2499 0.0642 0.10925 1.655-0.20873 2.9862-0.59695zm-0.78995-1.2461c1.718-0.67857 2.4567-1.0369 2.2797-1.1057-0.18743-0.0729-4.7649 1.6746-5.0008 1.9091-0.23378 0.23236 1.0831-0.15647 2.7211-0.80346zm-8.0077 35.984c-0.0773-0.13153 1.3228-1.7322 1.5151-1.7322 0.21496 0 0.0475 0.36007-0.50727 1.0905-0.57388 0.75562-0.84096 0.92567-1.0079 0.64172zm-39.43-23.697-0.67964-0.51538 1.7464-0.60153c0.96049-0.33084 2.9731-0.99571 4.4724-1.4775 1.4993-0.48178 4.0061-1.3258 5.5706-1.8756 5.5315-1.9438 17.183-5.7342 18.549-6.0345 0.22816-0.0502 0.81485-0.24728 1.3038-0.4381 0.48891-0.19079 2.1423-0.77927 3.6742-1.3077 1.5319-0.52845 3.4253-1.2119 4.2076-1.5188 2.0838-0.81756 2.9321-1.0663 6.0637-1.778 1.5541-0.35319 3.6565-0.8623 4.6721-1.1314 1.0156-0.26906 2.2423-0.52401 2.726-0.56658 0.79453-0.0699 0.90114-0.0521 1.1026 0.18356 0.21965 0.25697 0.21874 0.26266-0.0593 0.37272-0.15528 0.0615-1.1357 0.32081-2.1787 0.57627-4.5399 1.1119-7.3103 2.0183-21.808 7.1347-3.9113 1.3803-8.6582 3.0208-10.549 3.6457-1.8904 0.62484-4.2906 1.4414-5.3336 1.8146-1.043 0.37319-2.7764 0.92763-3.852 1.2321-1.0756 0.30445-2.1078 0.61439-2.2939 0.68876-0.72942 0.29168-6.3539 2.1252-6.4998 2.1189-0.0852-4e-3 -0.46077-0.23865-0.83457-0.5221zm60.498-8.2388c-0.39602-0.15086-0.39988-0.33014-7e-3 -0.33014 0.11722 0 0.27021 0.11215 0.33999 0.24926 0.0698 0.13708 0.11165 0.24498 0.0931 0.23977-0.0186-5e-3 -0.21027-0.0767-0.42595-0.15889zm-4.2669-5.1021-0.27363-0.30708 0.27363-0.0704c0.15049-0.0387 0.72698-0.1066 1.2811-0.15092 0.80198-0.0641 1.0558-0.0422 1.2443 0.10716 0.31702 0.25122 0.23682 0.30586-0.65887 0.44895-0.41978 0.0671-0.9499 0.15734-1.1781 0.20063-0.34351 0.0652-0.46188 0.0259-0.68846-0.22836z" fill="#7edf80" stroke-width=".12154"/>
 </g>
</svg>
