<?xml version="1.0" encoding="UTF-8"?>
<!-- Created with Inkscape (http://www.inkscape.org/) -->
<svg width="25.299mm" height="18.521mm" version="1.1" viewBox="0 0 25.299 18.521" xmlns="http://www.w3.org/2000/svg">
 <g transform="translate(-93.022 -101.31)">
  <path d="m107.74 101.31a10.583 9.2604 0 0 0-9.7395 5.6782c-1.5889 0.70475-3.4323-0.95694-4.9759-0.98909 0.13279 2.3668 2.3885 4.3219 3.9904 5.8296 0.0913 0.086 0.1924 0.16891 0.29662 0.25114a10.583 9.2604 0 0 0 10.428 7.751 10.583 9.2604 0 0 0 10.583-9.2604 10.583 9.2604 0 0 0-10.583-9.2604zm-2.1074 5.9728c0.5853-0.0159 1.1468 0.0249 1.3255 0.25062 0.33735 0.42598 0.10232 1.7098 0.10232 2.2371 0 2.5424-0.5232 5.5287-3.6959 5.5945 0-0.41685-0.10141-0.99052 0.0599-1.3813 0.15597-0.37782 0.61724-0.60629 0.87074-0.92038 0.48887-0.60576 0.70649-1.3285 0.7674-2.0939h-1.6981c0-0.88487-0.33047-2.5712 0.0599-3.3646 0.13233-0.26892 0.48763-0.22977 0.73897-0.23151 0.27438-3e-3 0.88386-0.0745 1.4692-0.0904zm4.9242 0.0904h2.4975c0 2.9992 0.71724 7.8037-3.5962 7.9918 0-0.41685-0.10138-0.99052 0.0599-1.3813 0.15804-0.38272 0.62921-0.60989 0.89194-0.92038 0.4795-0.56681 0.68826-1.2657 0.7462-1.9942l-1.6981-0.0997v-2.5972l0.1602-0.8961z" fill="#ffcb47"/>
 </g>
</svg>
