<?xml version="1.0" encoding="UTF-8"?>
<!-- Created with Inkscape (http://www.inkscape.org/) -->
<svg width="68.866mm" height="68.982mm" version="1.1" viewBox="0 0 68.866 68.982" xmlns="http://www.w3.org/2000/svg">
 <g transform="translate(-87.011 -66.712)">
  <path d="m121.12 66.713a34.492 34.492 0 0 0-19.384 6.1417 34.492 34.492 0 0 0-14.727 25.654l3.5166 0.27596a30.972 30.972 0 0 1 13.216-23.037 30.972 30.972 0 0 1 43.098 7.8145 30.972 30.972 0 0 1-7.814 43.099 30.972 30.972 0 0 1-1.0588 0.70022l1.8841 2.9729a34.492 34.492 0 0 0 1.1793-0.78083 34.492 34.492 0 0 0 8.7023-47.996 34.492 34.492 0 0 0-28.612-14.844zm-29.893 41.489-3.438 0.79788a34.492 34.492 0 0 0 5.2452 11.851 34.492 34.492 0 0 0 29.523 14.823l-0.11989-3.5171a30.972 30.972 0 0 1-26.511-13.311 30.972 30.972 0 0 1-4.6995-10.644z" fill="#7edf80" stroke-width=".22544"/>
 </g>
</svg>
