<?xml version="1.0" encoding="UTF-8"?>
<!-- Created with Inkscape (http://www.inkscape.org/) -->
<svg width="46.003mm" height="71.312mm" version="1.1" viewBox="0 0 46.003 71.312" xmlns="http://www.w3.org/2000/svg">
 <g transform="translate(-84.811 -71.744)">
  <path transform="scale(.26458)" d="m376.58 271.17c-4.1666-0.22411-8.0779 2.9483-9.8652 8.3926-0.56942 1.7344-0.5085 2.4864 0.45313 5.6523 1.2943 4.261 3.0508 6.5833 5.6152 7.4297l1.834 0.60547v5.4082c0 3.5009-0.22367 5.632-0.63477 6.043-0.49376 0.49378-0.49376 0.63476 0 0.63476 0.84393 0 0.79683 0.99929-0.13086 2.7774-0.55041 1.0551-0.58585 1.4583-0.1289 1.4668 0.34658 6e-3 0.0333 0.47787-0.69336 1.0469-1.8296 1.4311-1.5899 1.3311 5.291-2.207 6.4893-3.3368 9.8676-4.2346 19.311-5.1328 4.5593-0.43371 4.6192-0.45499 1.4394-0.52344-2.9213-0.0629-3.5372-0.26963-5.1211-1.7109-0.9902-0.90108-2.4473-2.9212-3.2402-4.4883-0.79286-1.5671-2.3513-3.6902-3.4629-4.7188l-2.0215-1.8691 1.043-1.7109c1.2641-2.0733 1.3546-5.5035 0.24609-9.2363-0.91007-3.0646-3.3062-5.5006-7.0312-7.1484-0.96582-0.42723-1.9408-0.65922-2.9023-0.71094zm4e-3 2.9531c3.2273 0 6.8743 3.8777 7.8008 8.2969 0.30085 1.4353 0.14655 1.8194-1.0352 2.5938-0.7629 0.49987-2.5591 1.0225-3.9922 1.1602-1.433 0.13768-2.8771 0.5766-3.209 0.97656-0.69891 0.84212-2.4912 0.93993-4.3418 0.23633-1.3539-0.51476-2.4805-2.8944-2.4805-5.2402 0-3.742 3.8726-8.0234 7.2578-8.0234zm7.2617 11.896c0.38801 0.0581 0.42338 0.4946-0.0586 0.97656-0.50559 0.50562-1.2344 0.43551-1.2344-0.11914 0-0.25984 0.35655-0.60984 0.79297-0.77734 0.2016-0.0774 0.37067-0.0994 0.5-0.0801zm-3.4258 1.918c0.81027 0.11172 1.563 0.85543 2.4883 2.3379 0.82296 1.3185 2.1502 3.2832 2.9492 4.3652 3.109 4.21 5.3105 7.5466 5.1074 7.7402-0.44579 0.42518-12.4 3.8212-12.773 3.6289-0.21619-0.11123-0.33435-4.0079-0.26368-8.6582 0.10394-6.8402 0.27975-8.5492 0.92188-8.9551 0.5774-0.36499 1.0842-0.52602 1.5703-0.45898zm-7.125 0.46875c0.47082 0 0.70718 0.23832 0.52735 0.52929-0.17991 0.29099-0.41619 0.5293-0.52735 0.5293-0.11112 0-0.34947-0.23832-0.5293-0.5293-0.1799-0.29098 0.0584-0.52929 0.5293-0.52929zm-3.1758 1.0059 1.5879 0.74804c0.87292 0.41093 1.9444 0.88052 2.3809 1.043 0.54365 0.20232 0.43752 0.30733-0.33789 0.33594-0.62245 0.0231-1.6939-0.44663-2.3809-1.043zm46.424 10.158c-1.5276-0.0291-2.7774 0.0378-2.7774 0.15039 0 0.42914 2.9834 0.61746 4.2402 0.26758 0.95119-0.2648 0.54506-0.37985-1.4629-0.41797zm-10.045 0.0859c-1.6315 0.0193-3.3852 0.22432-5.6973 0.64062-2.7627 0.49742-5.0215 1.0025-5.0215 1.1211 0 0.32897 2.1138 0.15446 4.7617-0.39258 1.3094-0.27054 3.212-0.37953 4.2305-0.24219 1.0184 0.13731 3.2815 0.0711 5.0274-0.14648l3.1738-0.39454-3.5742-0.42382c-0.98708-0.1172-1.9215-0.17369-2.9004-0.16211zm13.127 2.1953c-0.74456-0.0163 0.14893 0.16775 2.8711 0.61914 6.3391 1.0511 14.549 2.8796 14.549 3.2402 0 0.15908-1.2497 0.14903-2.7773-0.0234-2.23-0.25157-1.7359-0.0219 2.5117 1.1641 6.2986 1.7584 7.8664 2.5307 10.316 5.0859l1.8516 1.9316-1.5332-0.58008c-1.3526-0.5118-1.4545-0.48426-0.86133 0.23047 0.37002 0.44574 1.2258 0.81054 1.9004 0.81054 0.67465 0 1.3936 0.2694 1.5977 0.59961 0.51031 0.82571-4.4208 0.093-5.9414-0.88281-0.93892-0.60244-3.5901-0.64768-15.342-0.26367-14.037 0.45867-14.29 0.4865-21.068 2.373-7.652 2.1298-13.82 4.6291-19.984 8.0957-3.6003 2.0247-4.5632 2.908-7.5332 6.9121-5.6583 7.6285-8.1536 13.411-10.658 24.695-1.0813 4.8719-0.92743 10.848 0.36328 14.146 0.59886 1.5307 1.8099 4.806 2.6914 7.2793 2.9664 8.3231 7.7008 14.94 11.994 16.76 0.96532 0.40925 2.7517 1.6403 3.9688 2.7363 2.9063 2.6174 5.155 4.3125 5.7226 4.3125 0.83841 0 0.47073-0.98325-0.48047-1.2852-1.347-0.4275-6.3425-5.0127-5.4922-5.041 0.39155-0.0113 1.3429 0.42333 2.1152 0.96876 0.97826 0.69083 2.4744 1.5262 4.1211 2.3613 0.13334 0.27673 0.28596 0.54329 0.46289 0.79688 0.4009 0.5746 1.2606 0.66287 1.9512 0.78125 0.46888 0.0804 0.9384 0.15769 1.4082 0.23242 3.0635 1.3468 5.8625 2.342 6.4727 2.1387 0.24159-0.0805-0.43675-0.46878-1.5684-0.96094 1.6454 0.51406 3.2193 1.2683 4.8555 1.8164-0.50886 0.11767-0.78204 0.306-0.88868 0.58399-0.30992 0.80726 0.7944 0.8988 4.8262 0.39843 0.45562-0.0565 0.78222-0.12556 1.0508-0.19726 2.3035 0.17403 4.8508 0.23076 5.7012-0.10938 0.13379-0.0535 0.2521-0.13473 0.36719-0.22461 0.5069-0.13206 1.018-0.28722 1.4668-0.46679 0.0539-0.0216 0.0833-0.0394 0.13477-0.0605 0.12779 0.0124 0.2537 0.0105 0.37304-0.0293 0.0225-7e-3 0.0446-0.0164 0.0664-0.0254 0.10662 9e-3 0.21412 0.0181 0.32422 0.0254 2.1001 0.14004 4.2785-0.16688 6.4004-0.13086l2.1856 0.52149h2.7324c0.87579 0 6.8223 0.40618 7.0254 0 0.67019-1.3404-0.44691-0.83559-0.78125-1.1699-0.18406-0.18406 0.14702-0.56645 0-0.78124-0.21029-0.30756-0.43997-0.59984-0.67969-0.88477 0.43566-0.46641 2.3809-0.79322 6.0371-1.0078 3.0552-0.17915 7.3237-0.8111 9.4863-1.4043 6.122-1.6792 6.503-1.5336 3.7207 1.4336-1.9873 2.1194-1.8608 2.0458 0.81446-0.47461 2.0344-1.9167 4.5958-3.6403 7.1406-4.8066 2.1823-1.0002 5.9315-3.1604 8.332-4.8008 2.4006-1.6404 4.3652-2.781 4.3652-2.5332 0 0.24794-0.34858 1.2838-0.77344 2.3008-0.42493 1.017-0.63789 1.9812-0.47461 2.1445 0.16328 0.16328-0.92513 2.4651-2.418 5.1133-2.631 4.6673-2.6951 4.8788-2.0859 6.9121 0.34583 1.1537 0.80027 2.0977 1.0098 2.0977 0.20939 0 1.2286-1.2497 2.2656-2.7773 1.9341-2.8488 4.7997-9.399 6.4902-14.834 0.7149-2.2983 1.3584-3.3145 2.5781-4.0684 0.89394-0.55245 2.1927-1.6071 2.8848-2.3438s1.4317-1.2311 1.6445-1.0996c0.46647 0.28838 2.8648-5.1015 3.4199-7.6856 0.69185-3.2206 1.0558-3.0071 1.3711 0.80079 0.16856 2.0368 0.23858-1.5341 0.15429-7.9356-0.0843-6.4015-0.36542-12.488-0.625-13.523-1.1031-4.3992-5.0224-10.586-9.6758-15.273-1.2799-1.2893-1.9115-2.0336-1.4023-1.6543 0.63571 0.47353 0.92578 0.50103 0.92578 0.0898 0-0.32938-0.96177-1.2514-2.1387-2.0488-1.1769-0.79742-3.1048-2.2223-4.2832-3.168-1.1784-0.94566-2.2976-1.7124-2.4883-1.7031-0.19086 9e-3 0.11137 0.36289 0.67188 0.78711 0.56069 0.42421 0.87113 0.92182 0.68945 1.1035-0.69195 0.69195-4.0208-2.07-9.2891-7.707-4.2613-4.5596-6.4519-6.43-9.9531-8.498-11.142-6.5808-22.077-10.913-28.625-11.338-2.2555-0.14642-5.5295-0.37782-7.2754-0.51563-0.60492-0.0477-1.035-0.0766-1.2832-0.082zm4.2559 1.9648c-0.28767 4e-3 -0.55528 0.0427-0.73438 0.11524-0.35829 0.1449 0.0624 0.25491 0.93555 0.24414 0.87292-0.011 1.1671-0.12954 0.65235-0.26367-0.25737-0.0671-0.56585-0.0993-0.85352-0.0957zm-46.865 0.70703c0.0957-0.0356 0.16211 0.26694 0.16211 0.8125 0 0.72744-0.11897 1.0258-0.26562 0.66211-0.14665-0.36374-0.14665-0.95854 0-1.3223 0.0367-0.0909 0.0716-0.14047 0.10351-0.15235zm53.195 0.34961c-0.18379 8e-3 -0.3418 0.0567-0.42969 0.14453-0.17575 0.17579 0.1358 0.30033 0.69336 0.27735 0.61629-0.0253 0.74222-0.15144 0.32031-0.32031-0.19096-0.0764-0.40019-0.10913-0.58398-0.10157zm-57.318 0.625c-0.0919-0.0702-2.3588 1.3637-6.1504 3.9102-2.7304 1.8337-4.7937 3.334-4.5859 3.334 0.20787 0-1.395 1.9259-3.5606 4.2793-5.5968 6.0823-10.513 14.611-14.443 25.057-1.1993 3.1868-2.4428 5.8813-2.7637 5.9883-0.83966 0.27988 1.1735-6.6983 3.3984-11.781 1.9174-4.3804 2.8619-7.6098 1.7793-6.084-1.2626 1.7796-4.9937 9.5175-6.625 13.742-1.0404 2.6943-2.0775 4.5775-2.5781 4.6797-1.0992 0.22443-1.0585-0.69635 0.21289-4.752 0.57819-1.8445 1.048-3.4736 1.043-3.6191-0.0302-0.86347-1.3798 2.3335-2.1191 5.0195-0.84174 3.0582-0.95871 3.2002-3.3633 4.0606-1.37 0.49015-3.0839 1.279-3.8086 1.7539-1.608 1.0536-3.3782 3.8504-3.3808 5.3418-8e-4 0.60397-0.58735 1.6482-1.3027 2.3203-0.81192 0.76275-1.5482 2.3392-1.959 4.1934-0.36208 1.6337-0.96817 3.2854-1.3457 3.6699-0.48056 0.48941-0.70985 2.7103-0.76367 7.4062-0.10658 9.2852-0.0523 9.7071 1.9766 15.965 0.93438 2.8818 1.8608 5.261 2.8008 7.1953-0.32574 0.1167-0.67011 0.257-1.0371 0.42383 0.70808 0.53017 1.4193 1.0577 2.1289 1.5859 1.1297 1.8846 2.283 3.174 3.498 3.8613 0.95165 0.53834 1.8305 0.91086 2.166 0.93554 0.29763 0.64556 0.67671 1.1888 1.2109 1.5449 0.29889 0.19922 0.90411 0.0385 1.4062-0.0176 0.0341 0.0212 0.0705 0.0446 0.10352 0.0645 0.15823 0.0949 0.35825 0.0207 0.55078-6e-3 0.81773 0.33725-0.33834 0.78065 1.0625 1.1309 1.204 0.30112 2.1798 1.2112 3.4688 1.5488-0.0531 0.0869 0.15572 0.26753 0.58203 0.58593 0.62124 0.46409 1.7127 0.69049 2.6445 0.54883 0.0632-0.01 0.1208-0.0126 0.18164-0.0195 0.0491 0.0238 0.0977 0.0481 0.14844 0.0684 0.14465 0.0578 0.94909 0.20987 1.8203 0.36524 0.28201 0.17943 0.57118 0.40934 0.89063 0.70898 0.8002 0.75065 1.4551 1.0958 1.4551 0.76758 0-0.32807-0.23835-0.744-0.5293-0.92383-0.1567-0.0968-0.26285-0.19748-0.34766-0.29883 0.53152 0.0889 0.96069 0.15775 1.0039 0.16016 0.18008 0.01 1.8898 0.12702 3.5801 0.17968 0.7667 1.4624 3.5794 4.0934 8.3516 7.7774 3 2.3159 5.3432 4.3208 5.207 4.457-0.61784 0.61784-5.2697-2.132-9.8594-5.8281-2.7638-2.2257-5.3238-4.0498-5.6875-4.0547-2.8-0.0378 4.1367 6.1804 9.9199 8.8926 2.9458 1.3814 9.396 5.2378 11.439 6.8398l1.5234 1.1934-1.5-0.53516c-0.82481-0.2948-2.5512-1.1533-3.8359-1.9062-1.2848-0.75295-2.3359-1.2363-2.3359-1.0762 0 0.75549 7.4337 4.6334 8.334 4.3477 0.53934-0.17122 1.4227 0.01 1.9648 0.4082 0.91143 0.66648 0.84151 0.74778-0.92969 1.0801-4.2426 0.79593-11.915 9.9607-14.988 17.902-1.6041 4.145-1.983 4.6185-3.707 4.6309-0.73179 8e-3 -1.8947 1.0051-3.3223 2.8555-1.9944 2.5852-2.2429 3.2535-2.7051 7.2734-1.2201 10.612-0.57202 14.709 3.6855 23.26 2.8767 5.7773 3.0616 6.3771 3.1524 10.291 0.0967 4.1686 0.80076 6.5882 2.0352 6.9902 0.86631 0.28233 0.82757-1.0568-0.13281-4.6348-1.3306-4.9574-1.2505-5.1509 2.0293-4.8789 3.1388 0.26041 5.7361-0.72756 6.7129-2.5527 0.54134-1.0115 0.70476-0.92867 2.9043 1.4609 2.7842 3.0248 2.9654 4.4889 0.78711 6.4004-1.0152 0.89083-1.5879 1.8984-1.5879 2.7969 0 2.1537-1.1042 2.7068-5.0039 2.5059-2.15-0.11074-3.3969 0.0235-3.2871 0.35156 0.24907 0.74578 7.7739 0.91224 8.6426 0.19141 0.38831-0.3224 0.71042-1.3302 0.71484-2.2402 8e-3 -1.914 0.41425-2.6533 1.7188-3.1348 2.4418-0.90123 2.2-5.2952-0.4043-7.3438-1.8708-1.4716-3.0607-3.9151-2.4688-5.0684 0.45309-0.88271 1.2545-11.456 1.4121-18.621l0.0762-3.4141 2.8594-1.4785c1.5735-0.81302 2.9593-1.4785 3.0781-1.4785 0.11867 0 0.0575 2.2011-0.13672 4.8926-1.0596 14.695-1.033 16.314 0.33789 19.973 1.1373 3.0357 1.2076 3.6243 0.60156 5.0254-0.37757 0.87295-0.69782 2.1325-0.71094 2.7988-0.0113 0.6663-0.4902 2.1302-1.0625 3.252-1.773 3.4754-2.3078 10.42-1.4004 18.219 0.4328 3.7195 0.68114 7.0421 0.55078 7.3828-0.56413 1.4743-1.0608 7.7617-0.61328 7.7617 0.67763 0 2.4632 2.234 2.4844 3.1074 0.0151 0.59063-0.13298 0.6012-0.78907 0.0566-0.44349-0.36812-0.92267-0.55194-1.0664-0.4082-0.14362 0.14362 0.63598 0.87886 1.7324 1.6348 2.7012 1.8623 6.2524 2.6125 8.9121 1.8809 3.8707-1.0648 8.1582-3.6188 8.1582-4.8594 0-0.29669-0.594 0.0207-1.3203 0.70312-2.0448 1.921-2.0713 0.96068-0.0566-2.0332 2.1549-3.2021 3.5984-6.8881 5.1719-13.197 0.88816-3.5612 1.5264-4.9876 2.8066-6.2773l1.6562-1.668 2.8809 0.7832c2.211 0.60084 4.9497 0.72433 11.773 0.53516 4.8904-0.13568 8.8038-0.15932 8.6973-0.0527-0.10659 0.10658-1.1327 0.41487-2.2793 0.68359-2.0718 0.48556-2.074 0.48822-0.37109 0.54102 0.94257 0.0302 2.8857-0.39194 4.3164-0.93555l2.6016-0.98828 0.35742 2.4434c0.19729 1.3438 0.96624 3.9686 1.707 5.832 1.1461 2.883 1.2984 3.9029 1.0234 6.8477-0.28725 3.0757-0.17441 3.7142 1.0117 5.7383 0.73405 1.2526 1.1758 2.2773 0.98242 2.2773-0.83067 0 1.2556 1.8079 3.7188 3.2207 3.1904 1.83 4.5778 1.906 7.5801 0.41992l2e-3 -2e-3c2.3439-1.1602 3.1696-2.2186 3.8613-4.9492 0.22299-0.8798 1.0224-3.0749 1.7773-4.877 0.75492-1.8021 1.872-5.7176 2.4805-8.7012 0.9479-4.6478 1.057-6.4894 0.76367-12.859-0.47871-10.396-0.47897-10.254-0.0625-13.783 0.28082-2.3804 0.2278-2.976-0.21289-2.3809-0.80496 1.0871-0.29525-1.1171 1.5918-6.877 0.81025-2.4733 1.644-5.926 1.8516-7.6719 0.2075-1.7458 0.44558-3.5303 0.5293-3.9668 0.0835-0.4365 0.17188-1.1514 0.19531-1.5879 0.0979-1.8339 2.2575 3.042 2.4394 5.5078 0.10923 1.4812 0.33949 4.1214 0.51172 5.8672l0.31445 3.1738-2.4082 2.3594c-2.7443 2.6893-3.1406 4.7636-1.3477 7.043 0.58198 0.73984 1.0566 1.7984 1.0566 2.3516s0.3057 1.4242 0.67968 1.9356c0.59592 0.81498 0.69134 0.65383 0.76953-1.3066 0.0673-1.6878-0.22921-2.6151-1.209-3.7793-0.71392-0.84839-1.2969-1.9122-1.2969-2.3652 0-0.45301 1.1748-1.9825 2.6113-3.3965l2.6113-2.5703 1.1133 1.5644c1.4138 1.9855 3.892 2.5146 6.5586 1.4004 1.0762-0.44965 1.8052-0.57252 1.6191-0.27148-0.18596 0.30123-0.83167 0.73047-1.4336 0.95312-0.60193 0.22262-0.85723 0.55001-0.56836 0.72852 0.28876 0.17839 1.1621-7e-3 1.9414-0.41016 1.3622-0.70673 1.4205-0.67907 1.5137 0.68945 0.12888 1.8905 4e-3 3.8147-0.33594 5.1953-0.34507 1.3996-3.3152 2.865-5.666 2.7949-2.397-0.0714-5.342 0.72318-5.6055 1.5137-0.288 0.86385 1.3863 0.81809 3.1191-0.0859 0.76766-0.40051 1.9928-0.61568 2.7207-0.47656 0.72794 0.13909 2.4048-0.22495 3.7285-0.81055 2.0909-0.92492 2.4883-1.3638 3.0215-3.3438 0.34885-1.2949 0.46621-3.3956 0.27149-4.8633-0.28611-2.156-0.082-3.2121 1.2402-6.3887 1.9739-4.7414 2.6922-9.0528 2.6934-16.184 2e-3 -12.646-2.9451-19.48-9.7891-22.697-1.3067-0.61425-3.1244-2.2669-4.6992-4.2715-2.4699-3.1437-4.6215-5.0149-10.348-9.0059-1.4612-1.0184-2.6589-2.1432-2.6621-2.498-3e-3 -0.3549 1.7205-1.8185 3.8301-3.252 4.3052-2.9254 6.2299-4.8315 9.1524-9.0645 1.1049-1.6004 3.2889-4.6114 4.8516-6.6914 2.8088-3.7384 2.8322-3.8016 2.1016-5.5547l-0.74023-1.7734-0.80469 1.8906c-0.44296 1.0396-1.5507 2.7404-2.4629 3.7793-1.1308 1.2879-1.544 2.1853-1.2988 2.8242 0.25096 0.65416 0.16631 0.81824-0.2793 0.54297-0.36245-0.22412-1.7164 0.28554-3.1328 1.1777-1.3717 0.86388-3.2072 1.9694-4.0801 2.457-0.87292 0.48763-1.1112 0.73947-0.52929 0.56055l1.0584-0.32411-1.0586 1.0469c-0.58194 0.5757-2.8076 1.9872-4.9453 3.1387-2.1377 1.1515-3.5889 2.1937-3.2266 2.3145 0.89223 0.29745-6.0041 3.3362-9.8476 4.3398-1.7034 0.44481-3.1917 0.71454-3.3066 0.59961-0.11489-0.1149 1.4417-1.0388 3.459-2.0547 2.0173-1.0159 5.2577-2.937 7.2012-4.2676 1.9435-1.3306 3.7221-2.418 3.9512-2.418 0.22904 0 1.3576-0.98867 2.5078-2.1953 2.0524-2.1532 1.6235-2.3567-0.65235-0.31054-3.3441 3.0066-12.995 8.8421-18.109 10.951-2.147 0.88535-4.8576 1.6055-6.043 1.6055-1.507 0-1.983 0.16733-1.5918 0.55859 0.39122 0.39122 1.6037 0.37593 4.0547-0.0508 4.3426-0.75621 5.9072-0.36587 1.9648 0.49023-2.5316 0.5497-17.133 2.1529-19.76 2.1699-0.7445 4e-3 -0.88619-0.26176-0.62696-1.1836 0.1852-0.65851 0.14317-0.92944-0.0957-0.60742-0.96476 1.3017-2.964 1.796-7.1426 1.7695l-4.3984-0.0254 2.5938-1.2871c2.7649-1.371 4.7239-2.8894 4.2891-3.3242-0.14551-0.14551-0.69128 0.12165-1.2129 0.59375-2.2682 2.0527-6.0752 3.2005-10.432 3.1465-4.1617-0.0518-11.733-1.6746-12.377-2.6543-0.1765-0.26835-1.1989-0.62579-2.2715-0.79492-2.356-0.37153-11.22-4.5595-15.242-7.1992-1.6004-1.0504-3.3318-2.0823-3.8457-2.2949-2.6983-1.1161-10.731-7.4511-8.2324-6.4922 0.58839 0.22564 0.80747 0.012 0.76367-0.74805-0.0276-0.47879-0.3111-0.99237-0.72071-1.4434 0.0656-0.0209 0.11366-0.0453 0.14063-0.0723 0.93989-0.9399-0.84932-2.3092-1.9336-3.4395 0.1579-0.023 0.3012-0.0412 0.44726-0.0703 0.82002-3e-5 1.4835 5.2e-4 1.4863-2e-3 0.11091-0.11085 0.99577-1.7984 1.6074-3.334 0.4341-0.26206 0.84569-0.55939 1.1016-0.92382l-0.61718-0.19336 2.3809-3.5176c-0.0613 0.0521-0.12111 0.10548-0.17774 0.16211-0.8687 0.86872-1.5114 1.9655-2.1894 2.9863 0.14067-0.59042 0.13164-1.0037-0.15235-1.0352-1.0182-0.11263-2.0315 0.24438-3.0469 0.40234l-0.35352-0.11132c-0.68869-0.50842-1.3006-1.1816-2.1172-1.4141-0.31529-0.0898-0.43653 0.1957-0.50977 0.58789l-21.146-6.6465c-0.14996-0.38495-0.36687-0.87342-0.72266-1.5723-0.81256-1.5961-1.8911-4.2596-2.3965-5.918l-0.91797-3.0156 2.373-1.8496c5.7628-4.4897 17.301-7.5419 26.559-7.0254 3.0269 0.16894 5.7246 0.52736 5.9941 0.79687 0.26948 0.26949 0.62397 1.5308 0.78906 2.8027l0.30078 2.3125-1.1387-1.0098c-0.62631-0.55593-1.2961-0.85429-1.4883-0.66211-0.192 0.19238-0.0971 0.34961 0.21094 0.34961 0.30803 0 0.93315 0.93475 1.3906 2.0781 0.74313 1.8573 0.74862 2.3987 0.0527 5.0703-0.42841 1.6447-1.0506 3.5006-1.3848 4.125-0.59475 1.1113-0.61744 1.1138-1.0176 0.0899-0.27326-0.69929-0.42044-0.0712-0.44531 1.8926-0.034 2.6407-0.22436 3.1194-1.8887 4.7324-1.0184 0.98706-1.8516 1.9607-1.8516 2.1641 0 0.20334 0.96206 0.46204 2.1387 0.57422 2.4546 0.23395 2.8998-0.13287 4.918-4.0606 0.74751-1.4548 1.3693-2.4603 1.3828-2.2324 0.0124 0.20096-0.34131 0.99652-0.79688 1.9297l-2.3672 3.4961c0.25629-0.21778 0.54664-0.40001 0.82617-0.58203-0.46447 0.81486-0.92456 1.584-1.3106 2.1504-0.37502 0.55032-0.64644 0.99974-0.81836 1.3438-0.0157-6e-3 -0.0309-0.0123-0.0469-0.0176-0.27601-0.0919-0.22924 0.53936-0.39063 0.78125-8e-3 0.0117-0.0153 0.0236-0.0234 0.0352l1.6445 0.51562c-0.0999 0.14027-0.2011 0.27522-0.29687 0.38672-0.43895 0.51099-0.6663 1.0603-0.50586 1.2207 0.16063 0.16063 0.83161-0.46566 1.4902-1.3906 0.65866-0.925 2.2526-4.8068 3.543-8.627 1.9083-5.6496 2.3974-7.8845 2.6191-11.973 0.34319-6.3279-0.47268-12.431-1.9043-14.25-0.58696-0.74597-1.6622-2.616-2.3906-4.1562-2.385-5.0429-6.3694-9.8489-9.3066-11.225-2.6979-1.2636-3.1414-1.7868-1.9766-2.3359 0.36359-0.17148-1e-3 -0.18471-0.8125-0.0293-1.622 0.31098-5.4455-0.54474-5.9297-1.3281-1.2934-2.0927 6.6125-19.904 10.898-24.553 2.7971-3.0342 3.7785-3.1213 1.7637-0.15625-1.9719 2.9019-1.1977 2.3657 1.2344-0.85547 1.167-1.5457 3.6933-4.0871 5.6152-5.6465 1.922-1.5594 3.3753-2.9528 3.2305-3.0976-0.14476-0.14487 0.15428-0.75199 0.66406-1.3496 0.50986-0.59764-0.54353 0.16444-2.3418 1.6953-1.7983 1.5309-3.9926 3.608-4.877 4.6152-0.88437 1.0072-1.9202 1.832-2.3008 1.832-0.38064 0-1.2205 0.36931-1.8672 0.82226-0.72956 0.51102-1.1758 0.59985-1.1758 0.23242 0-0.90392 10.627-11.633 12.432-12.551 0.87292-0.44397 2.1827-1.3745 2.9102-2.0684 0.72744-0.69387 1.7989-1.6333 2.3809-2.0879 0.47675-0.37242 0.6869-0.56254 0.65625-0.58594zm-0.59961 4.2695c-0.0825 0.01-0.31442 0.11357-0.68945 0.29688-0.63848 0.31208-1.3074 0.80433-1.4863 1.0938-0.47751 0.77261-0.15507 0.63341 1.3262-0.57813 0.71216-0.5825 0.98706-0.82905 0.84961-0.8125zm74.625 0.0332c0.18476-0.0138 0.67553 0.18131 1.6211 0.57617 2.6499 1.1066 6.3501 3.2927 6.7969 4.0156 0.59115 0.95649-1.9554-0.0356-3.9707-1.5469-1.3762-1.032-1.7297-1.1394-1.4648-0.44922 0.32315 0.8424 0.25622 0.84-0.91211-0.0332-0.69407-0.51863-1.528-1.365-1.8535-1.8809-0.28031-0.44435-0.40156-0.6679-0.2168-0.68164zm-23.895 4.5918 2.1172 0.041-2.3808 0.76172c-1.3094 0.41887-4.2855 1.1058-6.6133 1.5254-2.3278 0.41955-5.4221 1.2199-6.877 1.7793-4.8898 1.8802-12.996 6.5954-17.344 10.088-3.947 3.1707-9.373 9.0928-9.373 10.23 0 0.25878 0.96527-0.75173 2.1465-2.2461 2.1261-2.6897 6.6011-6.3098 10.947-8.8574 1.2367-0.72491 2.248-1.5476 2.248-1.8281 0-0.28052 0.27533-0.34043 0.61133-0.13282 0.36283 0.22432 0.46708 0.14751 0.25781-0.1914-0.45048-0.7289 1.939-2.4296 5.8516-4.1641 3.7427-1.6592 9.6849-3.5378 10.047-3.1758 0.3617 0.36186-3.3106 2.1894-6.0371 3.0039-1.2271 0.36658-2.1105 0.86281-1.9629 1.1016 0.26646 0.43092 2.2037-0.239 11.865-4.0957l5.0254-2.0059 9.2598-0.0527c5.0921-0.0291 10.392 0.0505 11.777 0.17773 2.2365 0.20538 2.4156 0.31128 1.5879 0.93945-0.83206 0.63145-0.70458 0.72114 1.1836 0.82032 1.1639 0.0611 2.5209 0.11005 3.0156 0.10937 0.49474-5.3e-4 0.7726 0.20365 0.61719 0.45508-0.15534 0.25145 0.36694 0.29526 1.1621 0.0957 0.92912-0.2332 1.3272-0.17035 1.1133 0.17578-0.1852 0.29987 1.0412 1.1539 2.7656 1.9277 3.7056 1.663 4.6954 1.7952 2.2441 0.30078-0.97849-0.59655-1.6552-1.2081-1.5039-1.3594 0.58348-0.58348 3.6525 1.5437 7.3555 5.0957 2.1244 2.0378 4.1702 3.5886 4.5449 3.4473 0.37493-0.14135 0.83182 0.15587 1.0176 0.66016 0.18557 0.5043 1.2392 1.9508 2.3398 3.2148 2.7868 3.2004 7.1556 14.938 8.1524 21.9 0.19729 1.3792 0.56085 2.3843 0.80664 2.2324 0.24567-0.15189 0.36502 0.86239 0.26562 2.2539-0.15496 2.1689-0.12424 2.2651 0.21289 0.67774 0.21619-1.0184 0.42553-1.3956 0.4668-0.8379 0.0412 0.55767 0.21331 0.87669 0.38086 0.70899 0.16781-0.16781-0.31186-2.6227-1.0664-5.457-0.75435-2.8343-1.2722-5.2532-1.1504-5.375 0.36208-0.36216 2.2751 5.1794 2.8711 8.3164 0.94979 4.9988 1.2421 9.4066 0.64843 9.7734-0.30274 0.18709-0.54882 1.5013-0.54882 2.9219 0 1.4205-0.23835 2.7303-0.5293 2.9102-0.33638 0.20788-0.56791-1.5612-0.63477-4.8613-0.096-4.7455-0.1186-4.851-0.26562-1.2226-0.0884 2.1823-0.30632 4.5636-0.48438 5.291-0.30387 1.2425-0.35069 1.2576-0.75586 0.26368-0.36094-0.88566-0.4376-0.78924-0.46875 0.58398-0.0495 2.1843-2.1459 6.0308-5.666 10.395-2.9492 3.656-3.8668 4.274-3.9258 2.6445-0.0227-0.67464-0.17136-0.58298-0.53907 0.33594-0.70114 1.7522-4.5235 5.3579-5.6445 5.3242-0.77624-0.0227-0.7348-0.16074 0.26368-0.85742 1.407-0.98147 1.6357-2.4256 0.30273-1.9141-1.5254 0.58534 0.32346-1.6233 3.4336-4.0996 3.0589-2.4355 3.7952-3.4795 0.89258-1.2656-1.0184 0.77677-1.8516 1.3173-1.8516 1.2012 0-0.11603 0.83317-2.1868 1.8516-4.6016 2.591-6.1435 2.2845-6.0428-0.7793 0.25391-1.4786 3.0388-3.2898 5.9285-4.1894 6.6855-0.87163 0.73338-1.4798 1.4382-1.3516 1.5664 0.53699 0.53699-2.345 2.4624-4.9551 3.3106-3.0325 0.98551-4.1721 0.79727-2.0664-0.3418 1.4856-0.80383 5.6719-5.5051 5.6719-6.3691 0-0.31635-0.53668 0.21392-1.1914 1.1777-1.4823 2.1818-6.1174 5.4132-9.7891 6.8242-1.9103 0.73414-5.3894 1.2822-11.111 1.748-7.9217 0.6449-8.1351 0.68984-4.3613 0.9414l3.9688 0.26563-3.1738 0.375c-4.59 0.54171-9.4518 0.78098-13.842 0.75977l-24.346-2.6172c-1.9563-1.1328-4.1678-2.6864-6.9375-4.8535-4.1145-3.2194-5.4192-4.8927-9.5586-12.254-2.4825-4.4146-2.7254-5.149-2.8027-8.4648-0.0473-2.0258-0.18141-2.8124-0.30274-1.7793-0.35603 3.0297-1.0172 2.9278-2.2598-0.34765-1.0509-2.7704-1.1361-3.6683-0.8125-8.6465 0.19842-3.0552 0.33606-6.3416 0.30469-7.3047-0.0378-1.1038 0.86848-3.6472 2.4473-6.8789 1.3775-2.8196 2.4745-5.4794 2.4375-5.9121-0.0975-1.1399 3.1916-6.3413 5.2422-8.2891 3.0701-2.9162 10.091-7.6842 14.006-9.5117 5.8822-2.7457 18.08-5.5334 23.725-5.4219zm6.6133 2.1211c-0.23974 0-0.47831 0.0379-0.66016 0.11133-0.36359 0.14676-0.0673 0.26562 0.66016 0.26562 0.72744 0 1.0258-0.11886 0.66211-0.26562-0.1818-0.0734-0.42237-0.11133-0.66211-0.11133zm-3.1289 0.52539c-0.18379 8e-3 -0.34179 0.0567-0.42969 0.14453-0.17574 0.17579 0.13581 0.30029 0.69336 0.27734 0.61629-0.0253 0.74223-0.14949 0.32032-0.31836-0.19096-0.0764-0.4002-0.11107-0.58399-0.10351zm36.686 4.9062c0.14119 0.0216 0.33958 0.13049 0.56836 0.32031 0.43646 0.36223 0.79297 0.74108 0.79297 0.8418s-0.35655 0.0464-0.79297-0.12109c-0.43646-0.16751-0.79492-0.54633-0.79492-0.8418 0-0.15483 0.0854-0.22082 0.22656-0.19922zm-72.441 1.3984c0.7592 0.0246-2.5127 2.6179-3.3066 2.6211-0.36359 2e-3 -0.66015-0.11975-0.66015-0.26953 0-0.39255 3.3387-2.3718 3.9668-2.3516zm74.25 0.50781c0.51179 0 3.2559 2.8249 3.2559 3.3516 0 0.57688-3.0811-1.8168-3.3965-2.6387-0.15043-0.3922-0.0869-0.71289 0.14062-0.71289zm-80.604 4.502c0.0739 0.0369-0.426 0.57118-1.5566 1.7617-2.3279 2.4511-2.7005 2.682-1.8965 1.1797 0.30047-0.56171 1.3213-1.5518 2.2676-2.2012 0.72348-0.49651 1.1281-0.76892 1.1856-0.74024zm88.178 2.4297c0.10379-9e-3 0.38079 0.16795 0.83985 0.54687 0.50921 0.42033 1.8791 1.2016 3.043 1.7363 1.8709 0.85948 1.992 1.0211 1.0566 1.3965l-1.0566 0.42578 1.0566 0.0508c0.6197 0.0299 2.4389 1.6502 4.3887 3.9121 2.9501 3.4224 6.9863 8.9183 6.9863 9.5117 0 0.11947-1.1801 0.37502-2.623 0.5664-1.4429 0.1914-2.7668 0.57879-2.9414 0.86133-0.63035 1.0199-1.1107 0.46271-2.0918-2.4238-0.54917-1.6156-1.2002-3.0614-1.4453-3.2129-0.74128-0.45814-3.5957-6.443-3.5957-7.5391 0-0.56272-0.83317-2.0213-1.8516-3.2402-1.3807-1.6526-1.994-2.5722-1.7656-2.5918zm-89.336 3.3848-1.5058 1.4394c-0.82844 0.79137-1.3664 1.5789-1.1953 1.75 0.17122 0.17106 0.84849-0.47704 1.5059-1.4394zm-3.0449 4e-3c0.22434 0.0591-0.10156 0.72019-0.96875 1.998-0.69437 1.0232-1.5716 2.606-1.9492 3.5176-0.93448 2.256-1.2211 1.7296-0.58984-1.084 0.33298-1.4839 1.045-2.7394 1.9805-3.4863 0.84402-0.67389 1.3529-0.99128 1.5273-0.94531zm80.297 1.3613c-1.5009 9e-3 -2.9778 0.41474-4.666 1.2031-7.409 3.4601-9.2019 7.7663-6.293 15.113 1.577 3.9832 2.7441 5.4303 5.8574 7.2617 2.5463 1.4978 8.1834 2.0838 11.365 1.1816 2.7934-0.79204 6.0263-3.7738 7.0801-6.5332 1.2285-3.2169 0.69427-7.0742-1.541-11.143-1.5268-2.7788-2.1743-3.3925-5.3984-5.1133-2.506-1.3375-4.4746-1.9826-6.4043-1.9707zm19.779 0.5332c0.62491 0.0416 3.3281 2.6891 3.3281 3.3301 0 0.29359-0.8297-0.26908-1.8438-1.252-1.014-0.98286-1.7243-1.9047-1.5801-2.0488 0.0218-0.0218 0.054-0.0321 0.0957-0.0293zm-22.166 1.5488c0.77095 7e-3 0.78558 0.0795 0.10156 0.52149-1.036 0.66956-1.738 0.66956-1.3242 0 0.17991-0.29099 0.7306-0.52594 1.2227-0.52149zm10.666 2.1094c0.87893 0 3.2112 3.9536 3.5449 6.0098 0.40633 2.504-0.10104 2.4707-0.89844-0.0586-0.34394-1.0912-1.1992-2.8776-1.9004-3.9688-0.70114-1.0912-1.037-1.9824-0.7461-1.9824zm-3.6035 0.27343c0.16119-0.0673 0.53813 0.12456 0.97461 0.51953 0.58193 0.52667 1.0566 1.4378 1.0566 2.0254 0 1.1207-0.15252 1.0336-3.4375-1.9629-0.3292-0.30009-0.17944-0.36082 0.39648-0.1582 0.52574 0.18497 0.92578 0.07 0.92578-0.26758 0-0.0817 0.0303-0.13382 0.084-0.15625zm-4.1504 0.25391c0.38203 0 1.3786 0.71495 2.2148 1.5879 1.8107 1.8899 1.4534 2.0236-1.0586 0.39649-1.912-1.2385-2.3465-1.9844-1.1562-1.9844zm-9.0234 0.01c0.0401 7e-3 0.075 0.0262 0.10547 0.0566 0.17272 0.17268-0.16862 1.4378-0.75781 2.8125-0.58927 1.3747-1.0723 3.1548-1.0723 3.9551 0 2.0484-0.68288 2.4923-1.2441 0.8086-0.30123-0.90309-0.25642-2.1165 0.12305-3.3398 0.62093-2.0031 2.2444-4.402 2.8457-4.293zm6.7832 1.0488c1.3123 0 9.4805 8.0555 9.4805 9.3496 0 0.97014 0.0483 1.0054-4.9844-3.6152-1.4774-1.3565-3.3404-2.9806-4.1406-3.6094-1.7338-1.3623-1.8615-2.125-0.35547-2.125zm-49.719 0.53516c-3.8686 6e-3 -7.7298 1.8002-11.076 5.1465-2.252 2.252-2.6691 3.0346-3.5059 6.5879-1.9027 8.0795-0.48539 12.625 4.6875 15.033 3.1059 1.4462 8.7725 1.6961 12.033 0.53125 3.3139-1.1839 5.4071-2.6726 7.0566-5.0195 1.3722-1.9525 1.6178-2.8311 1.7773-6.3438 0.22299-4.9137-0.39411-7.4194-2.6836-10.896-2.4554-3.729-4.6209-5.0454-8.2891-5.0391zm-67.953 1.2246c0.38612 0.38612-0.97186 5.1172-1.4688 5.1172-0.25663 0-0.4668-0.0763-0.4668-0.16993 0-0.6494 1.753-5.1298 1.9356-4.9473zm116.27 0.48047c0.37607-0.37622 9.8223 9.1449 9.8223 9.9004 0 1.1323-0.89125 0.49011-2.8066-2.0215-1.0814-1.4181-3.17-3.7044-4.6406-5.0801-1.4706-1.3756-2.5393-2.6346-2.375-2.7988zm-2.9121 0.40625c1.3201 0 10.619 10.031 10.619 11.455 0 1.3449-0.92588 0.70604-4.5605-3.1465-2.0023-2.1223-4.545-4.5247-5.6504-5.3379-1.6197-1.1915-1.8881-1.6228-1.3887-2.2246 0.34091-0.41076 0.78121-0.74609 0.98046-0.74609zm-41.977 0.51172c0.42053 0.0495 1.3017 0.61111 2.4922 1.7363 1.3311 1.2582 1.9794 2.472 2.418 4.5234 0.74094 3.4662 0.77345 6.4531 0.0703 6.4531-0.29102 0-0.52734-0.67012-0.52734-1.4902 0-2.7363-1.5434-6.7311-3.4688-8.9805-1.3035-1.5229-1.5251-2.3059-0.98438-2.2422zm-7.4512 0.0488 2.5449 0.17969c2.6113 0.18482 5.0165 1.8215 6.2969 4.2852 0.34733 0.66832-0.12176 0.42196-1.2715-0.66992-1.0013-0.95079-1.9602-1.5906-2.1309-1.4199-0.17045 0.17065-1.4644-0.29442-2.875-1.0332zm-1.3965 0.35352c0.44493 0.0424 1.9133 0.96342 3.543 2.2441 3.396 2.6688 4.6383 3.3494 3.4082 1.8672-1.0771-1.2979 0.31094-0.93481 1.9551 0.51172 0.81641 0.71824 1.2001 1.3131 0.85351 1.3223-0.34658 9e-3 -0.7772-0.22075-0.95703-0.51172-0.17991-0.29098-0.57924-0.52929-0.88867-0.52929-0.34621 0-0.30039 0.31659 0.11914 0.82226 0.37493 0.452-1.3705-0.54159-3.8789-2.207-2.5084-1.6654-4.434-3.2322-4.2793-3.4824 0.0193-0.0313 0.0614-0.0432 0.125-0.0371zm4.918 0.3125c-0.0537 3e-3 -0.082 0.0222-0.082 0.0586 0 0.14548 0.47471 0.51863 1.0566 0.83008 0.58197 0.31144 1.0586 0.44822 1.0586 0.30274s-0.47663-0.52059-1.0586-0.83203c-0.43645-0.23361-0.81341-0.36797-0.97461-0.35938zm-34.492 0.625-0.28711 2.6445c-0.15837 1.4549-0.45054 3.3595-0.64844 4.2324-0.34847 1.5367-0.36414 1.5196-0.51563-0.52929-0.0862-1.1639 0.2041-3.0685 0.64649-4.2324zm28.26 0.26953c1.6354 0.014 13.14 10.11 12.383 10.867-0.17385 0.17367-3.1833-1.6314-6.6875-4.0098-3.5042-2.3784-6.639-4.2342-6.9668-4.125-0.32769 0.10923 0.48573 0.97524 1.8066 1.9238 3.4364 2.4678 3.651 3.2315 0.26758 0.95313-4.0511-2.7282-5.69-2.5037-2.6914 0.36914 1.4667 1.4052 2.5865 1.9173 1.9531 0.89258-0.65835-1.0653 0.49967-0.47738 3.2754 1.6641 3.5942 2.773 4.2844 3.8 1.0664 1.5859-1.3394-0.92157-2.5803-1.91-2.7578-2.1973-0.17764-0.28721-0.59167-0.52344-0.91992-0.52344-0.32807 0 0.1024 0.75053 0.95703 1.668 1.3119 1.4083 1.1136 1.3257-1.2715-0.5293-2.8471-2.2143-5.1686-3.0658-3.7734-1.3848 0.37039 0.44617 2.2456 2.0354 4.166 3.5312 4.1299 3.2168 7.459 6.2853 7.459 6.875 0 0.95384-1.3719 0.22683-6.6992-3.5469-5.2254-3.7016-7.0425-4.701-6.2676-3.4473 0.17688 0.28637 2.334 2.0916 4.793 4.0117 2.459 1.9201 4.4707 3.6171 4.4707 3.7695 0 0.50184-1.3168-0.21399-5.9082-3.207-4.2096-2.7439-4.5574-3.1076-4.875-5.0938-0.23811-1.4898-0.0856-2.6354 0.50391-3.7754 1.0552-2.0405 4.918-6.2783 5.7168-6.2715zm51.17 1.8789c0.5105-0.0208 4.6379 3.7314 6 5.5078l1.0254 1.3359-1.5547-1.3106c-0.85482-0.72121-2.4479-2.1375-3.5391-3.1484-1.0912-1.011-1.9824-2.0591-1.9824-2.3281 0-0.0366 0.0168-0.0553 0.0508-0.0566zm17.609 1.9824c0.0876 0.0417 0.21662 0.2367 0.4082 0.56641 0.43926 0.75619 0.37482 1.4226-0.27148 2.7773-0.46749 0.98037-1.1058 1.7832-1.418 1.7832-0.32731 0-0.21885-0.49771 0.25586-1.1758 0.45294-0.6467 0.831-1.8964 0.83984-2.7773 9e-3 -0.88456 0.0396-1.2434 0.18555-1.1738zm-138.53 0.4707c0.14896-0.0144 0.27653-6e-3 0.37696 0.0273 0.32466 0.10824-0.70403 0.94968-2.2852 1.8711-3.4142 1.9896-3.6107 2.0418-2.2949 0.58789 1.0761-1.1891 3.1604-2.3854 4.2031-2.4863zm152.67 0.82227c0.45958 3e-3 0.95855 0.0169 1.4746 0.041l3.7539 0.17579 0.89648 2.998c2.0081 6.7103 0.13071 17.978-3.8711 23.236-1.7224 2.2631-2.3066 2.1732-1.7402-0.26562 0.25322-1.0912 0.43119-2.9357 0.39453-4.0996-0.0518-1.6425-0.10827-1.7612-0.25-0.5293-0.31824 2.7617-1.33 7.2344-1.5801 6.9844-0.13228-0.13228-8.9e-4 -4.0499 0.29297-8.7051 0.51503-8.1546 0.48684-8.6604-0.77344-13.865-0.71943-2.9713-1.2102-5.5609-1.0918-5.7539 0.0887-0.1448 1.1154-0.2263 2.4941-0.2168zm-33.262 0.16406c0.0906 0.0319 0.28072 0.18084 0.58007 0.42774 0.48412 0.39934 0.88086 0.93411 0.88086 1.1894 0 0.80811-0.47098 0.50646-1.127-0.72461-0.35946-0.67461-0.48504-0.94577-0.33398-0.89258zm21.371 0.67774c0.0802-0.0122 0.13652 0.1812 0.15234 0.5664 0.0227 0.5577-0.10355 0.8711-0.27929 0.69531-0.17575-0.17582-0.19409-0.63177-0.041-1.0137 0.0634-0.15826 0.11983-0.24076 0.16797-0.24804zm-17.164 0.34765c0.14551 0 0.69406 0.47469 1.2207 1.0566 0.52668 0.58196 0.83887 1.0586 0.69336 1.0586s-0.69602-0.47664-1.2227-1.0586c-0.52667-0.58195-0.83688-1.0566-0.6914-1.0566zm-115.69 0.99414c1.3458 0.0271 2.7238 0.16627 3.9746 0.42383 2.8012 0.5768 3.6836 1.0422 3.6836 1.9375 0 0.35656 0.68609 1.0522 1.5234 1.5469 2.6478 1.5641 7.356 7.1376 9.0781 10.746 0.91299 1.913 1.5103 3.6283 1.3281 3.8106-0.59342 0.59342-2.8478 0.68292-3.1914 0.12695-0.18406-0.29821 0.076-0.54102 0.57813-0.54102 0.50211 0 0.79178-0.12055 0.64453-0.26757-0.35792-0.35793-12.146 1.5518-18.42 2.9844-6.014 1.3732-7.2521 1.9118-11.381 4.957-1.7459 1.2877-3.3367 2.3494-3.5371 2.3594-0.20032 0.0113-0.53104-1.0912-0.73438-2.4473-0.80058-5.3386 0.41194-13.567 2.7148-18.42 0.9103-1.9183 4.9399-5.1547 8.0195-6.4414 1.3216-0.55221 3.4757-0.82056 5.7188-0.77539zm8.6856 1.6504c0.30803 0 0.56054 0.23832 0.56054 0.5293 0 0.29099-0.10625 0.5293-0.23437 0.5293-0.12813 0-0.38072-0.23833-0.56055-0.5293-0.1799-0.29099-0.0737-0.5293 0.23438-0.5293zm3.0938 0.56836c0.20561-6e-3 0.5121 0.15267 0.78125 0.42383 0.51859 0.5225 0.45924 0.58398-0.29493 0.29688-0.52176-0.19866-0.81719-0.49532-0.65429-0.65821h2e-3c0.0407-0.0407 0.0975-0.0605 0.16602-0.0625zm101.87 0.49024c0.17121 0 1.438 0.71298 2.8144 1.5859 2.7066 1.7164 2.7153 1.9998 0.0293 0.87696-1.522-0.63621-3.6311-2.4629-2.8438-2.4629zm16.09 0.42578c0.0829 0.011 0.13086 0.0472 0.13086 0.11328 0 0.61229-2.1692 2.1055-3.0586 2.1055-0.38888 0-0.57076-0.22352-0.40235-0.4961 0.40152-0.64962 2.7495-1.7995 3.3301-1.7226zm-63.947 0.62109c0.1168 0.0396 0.93825 0.65959 2.5762 1.8984 1.8186 1.3756 3.3066 2.5923 3.3066 2.7051 0 0.45913-1.9919-0.96147-4.2324-3.0195-1.1793-1.0833-1.7672-1.6236-1.6504-1.584zm-54.424 0.01c0.87972 0 4.6093 4.0119 5.6562 6.084 0.90723 1.7955 1.0501 1.9194-3.5332-3.041-1.5459-1.6731-2.5009-3.043-2.123-3.043zm18.926 0.23437c0.0363-3e-3 0.0753 7e-3 0.11523 0.0312 0.8959 0.55368 0.59152 3.9668-0.35351 3.9668-0.0971 0-0.17578-0.96542-0.17578-2.1465 0-1.1348 0.15985-1.8281 0.41406-1.8516zm91.111 0.89258c0.23974 0 0.4783 0.038 0.66015 0.11133 0.36359 0.14664 0.0673 0.26562-0.66015 0.26562s-1.0258-0.11898-0.66211-0.26562c0.18179-0.0733 0.42237-0.11133 0.66211-0.11133zm-45.293 1.1929c0.18972 8e-3 0.32422 0.21838 0.32422 0.55859 0 0.45362-0.23835 0.82618-0.5293 0.82618-0.29102 0-0.5293-0.22434-0.5293-0.49805 0-0.27364 0.23835-0.64631 0.5293-0.82617 0.0728-0.045 0.14184-0.0633 0.20508-0.0605zm-20.902 1.6211c0.21917-0.0492 0.95694 0.66016 2.6465 2.3867 3.0944 3.1624 5.2047 4.1693 9.0566 4.3203l1.8516 0.0723-1.8516 0.40625c-2.2823 0.49968-5.0033 0.15719-7.2852-0.91797-1.9351-0.91166-3.6766-3.081-4.3457-5.4141-0.14933-0.52071-0.20377-0.82399-0.0723-0.85352zm19.67 0.82032c0.30803 0 0.41232 0.23835 0.23242 0.52929-0.17991 0.29103-0.43223 0.5293-0.56055 0.5293-0.1285 0-0.23242-0.23835-0.23242-0.5293 0-0.29102 0.25236-0.52929 0.56055-0.52929zm-42.586 1.4473c0.0518-1.5e-4 0.11244 0.0459 0.17969 0.14063 0.30992 0.43646 0.43198 1.5079 0.27343 2.3809-0.15874 0.87292 0.28825 4.0273 0.99219 7.0098 0.70405 2.9825 1.181 5.4219 1.0606 5.4219-0.12057 0-0.69003-1.0674-1.2676-2.373-1.0992-2.485-2.0149-12.578-1.2383-12.58zm31.018 1.7441c0.62901-0.0506 1.6017 0.22369 2.3105 0.75977 1.0049 0.76006 1.0014 0.77653-0.12109 0.79297-0.63092 8e-3 -1.5241-0.12623-1.9844-0.30274-0.46027-0.1765-0.83593-0.53504-0.83593-0.79492 0-0.27765 0.25345-0.42471 0.63086-0.45508zm81.674 0.9336c-0.041-0.0222-0.0903 0.057-0.14062 0.25-0.13417 0.51473-0.12485 1.2297 0.0195 1.5879 0.14513 0.3583 0.2551-0.0644 0.24414-0.9375-7e-3 -0.5456-0.0547-0.86349-0.12305-0.90039zm-35.779 0.10742c-0.63999 0-1.0274 0.36334-1.0274 0.96289 0 0.52909-0.78146 1.8388-1.7363 2.9121-3.1927 3.5887-10.445 4.0077-14.305 0.82617-1.0757-0.88668-1.8216-1.8301-1.6562-2.0977 0.48676-0.7876-1.6896-0.55699-2.3594 0.25-0.47282 0.56969-0.41845 0.93327 0.24414 1.5957 1.831 1.831 4.5537 3.6415 5.6758 3.7754 0.64629 0.0771 1.8449 0.40032 2.6641 0.71875 2.2107 0.85934 4.5243 0.66863 7.6816-0.63477h2e-3c3.3137-1.3687 5.7133-3.5857 6.1797-5.709 0.40301-1.835 3e-3 -2.5996-1.3633-2.5996zm-87.686 1.8516 0.42188 1.3223c0.23281 0.7274 0.43091 1.7989 0.43945 2.3809l0.0156 1.0586-0.45507-1.0586c-0.25021-0.58194-0.448-1.6535-0.43946-2.3809h2e-3zm12.852 1.1094c0.3285-0.10659 0.9518 0.55912 1.8164 2.2539 0.70707 1.3859 0.96055 2.8229 0.85352 4.8574-0.12322 2.3447 0.12236 3.3886 1.3086 5.5352 0.80402 1.4548 1.6433 3.2377 1.8633 3.9629 0.35339 1.1644 0.3017 1.2374-0.44336 0.61914-0.4639-0.38498-1.3426-1.7291-1.9512-2.9863-1.3981-2.888-2.2243-5.69-1.5566-5.2773 0.66935 0.41367 0.66873 0.41467-0.81836-3.1953-1.3468-3.2694-1.6198-5.5919-1.0723-5.7695zm-10.807 0.34961c0.012-0.0129 0.0248-8e-3 0.0371 0.0137 0.62026 1.1145 1.5156 6.8076 1.5156 9.6367 0 3.5234-1.125 9.7891-1.7578 9.7891-0.0597 0-0.11101-4.5162-0.11328-10.035-2e-3 -5.174 0.13862-9.2116 0.31836-9.4043zm118.86 3.3965 0.36133 2.4102c0.33524 2.2348 4e-3 5.168-0.58399 5.168-0.13946 0-0.11337-1.0133 0.0586-2.25 0.28082-2.0155 0.24901-2.1114-0.31641-0.92578l-0.63086 1.3242-0.19726-1.4258c-0.10847-0.78402 0.14049-2.0728 0.55469-2.8633zm-125.33 0.16992c0.92141 0 1.6738 0.24256 1.6738 0.53906 0 0.47449-2.497 0.19736-3.1289-0.34765-0.12132-0.1047 0.53363-0.19141 1.4551-0.19141zm2.7324 0c0.29102 0 0.5293 0.23835 0.5293 0.5293 0 0.29102-0.23835 0.52929-0.5293 0.5293-0.29102 0-0.5293-0.23835-0.5293-0.5293 0-0.29103 0.23835-0.5293 0.5293-0.5293zm130.93 0.75391c0.0359 0.0238 0.0331 0.12282-0.0176 0.30469-0.64025 2.2966-1.8447 4.2805-4.0508 6.6738-2.0262 2.1981-3.0625 2.8403-3.0625 1.8984 0-0.23206 0.97497-1.3615 2.166-2.5117 1.1911-1.1502 2.874-3.2834 3.7402-4.7383 0.64967-1.0912 1.1169-1.6983 1.2246-1.627zm-11.277 1.8926c0.58462 0 0.56032 0.3808-0.10351 1.6211-0.81389 1.5207-1.6515 1.2555-0.94336-0.29883 0.33146-0.72744 0.8026-1.3223 1.0469-1.3223zm-100.35 1.1777c0.49695 0.15353 1.5003 1.4255 2.8984 3.8691 2.4779 4.3308 6.7036 8.7312 11.777 12.266 0.43201 0.30093 0.76346 0.54282 1.1562 0.82226l-4.0488-0.43555c-0.22924-0.19723-0.39648-0.38673-0.39648-0.5332 0-0.42285-0.32541-0.60904-0.76758-0.43945-0.42157 0.16176-1.0764 0.0314-1.4551-0.28906-0.37863-0.32164-1.5021-1.116-2.498-1.7656-2.6446-1.725-2.8542-2.9952-0.24805-1.5039 1.1317 0.64755 1.4651 0.74655 0.74023 0.22071-3.5147-2.5508-5.3105-4.6402-6.3301-7.3652-1.2688-3.3912-1.4671-5.0431-0.82812-4.8457zm114.46 0.62305c-0.0893-0.0285-0.27719 0.26649-0.48633 0.78906-0.27893 0.69691-0.41272 1.3608-0.29687 1.4766 0.11565 0.11566 0.35963-0.17543 0.54101-0.64844 0.18142-0.47281 0.3154-1.1386 0.29688-1.4785-5e-3 -0.085-0.0249-0.12917-0.0547-0.13867zm-118.36 2.5527c0.0781-0.0688 0.25901 0.0808 0.4707 0.4082 0.28196 0.43646 0.51368 1.0313 0.51368 1.3223 0 0.29102-0.23172 0.17091-0.51368-0.26563-0.28195-0.43645-0.51171-1.0313-0.51171-1.3223 0-0.0728 0.015-0.11964 0.041-0.14258zm117.29 0.73047c-0.1962 0.0426-0.6543 0.54449-1.1855 1.3262-0.70836 1.0424-2.1964 2.6382-3.3066 3.5449-1.1103 0.90671-1.8251 1.6563-1.5879 1.666 0.23735 0.0113 1.7252-1.276 3.3066-2.8574 1.5814-1.5814 2.875-3.185 2.875-3.5625 0-0.0944-0.0362-0.1314-0.10157-0.11719zm-13.898 2.4785c0.0342 3e-3 0.0625 0.0137 0.084 0.0351 0.18784 0.18784-0.21597 0.93584-0.89844 1.6621-1.3133 1.398-1.5968 1.5646-1.5684 0.92383 0.0319-0.69268 1.8698-2.6611 2.3828-2.6211zm-3.2246 0.20703c0.0814 0.0341 0.02 0.22143-0.15625 0.55078-0.32958 0.61591-1.2295 1.6142-1.998 2.2188-1.4396 1.1323-2.6061 1.4762-2.0703 0.60937 0.16668-0.26986 1.284-1.268 2.4844-2.2188 1.0698-0.8473 1.6045-1.217 1.7402-1.1602zm-153.02 3.7734c0.22662-0.0775 1.0745 1.6708 2.5234 5.1133l-1.2891-0.40625c0.75494 1.0287 1.5408 2.0192 2.3574 2.9668 0.0149 0.0366 0.024 0.0569 0.0391 0.0937 0.10803 0.26519 0.15172 0.3797 0.24414 0.60742 0.10711 0.37465 0.19653 0.75776 0.2832 1.1426-0.15974 0.0187-0.32639 0.0465-0.5 0.082-0.71331-1.0059-1.748-3.0693-2.4238-4.8926-0.73675-1.9876-1.3233-4.0172-1.3027-4.5098 5e-3 -0.11785 0.0282-0.18353 0.0684-0.19727zm132.32 5.9238c0.94235 8e-3 1.0105 0.10254 0.36524 0.51953-1.0423 0.67359-2.2678 0.67359-1.8516 0 0.17991-0.29102 0.84884-0.52399 1.4863-0.51953zm-62.938 0.79102c0.44102 0.15813 0.81613 0.31356 1.1543 0.46484l-0.14649-0.0137v-2e-3c-0.36746-0.13209-0.7007-0.2873-1.0078-0.44922zm59.07 0.29297c1.1717-2e-3 1.2156 0.0615 0.375 0.55078-1.5351 0.89325-11.04 2.4973-10.277 1.7344 0.46832-0.46832 8.3309-2.2828 9.9023-2.2852zm-13.344 3.4453c0.37943-0.0262 0.64648 0.0756 0.64648 0.27344 0 0.26381-0.47467 0.48047-1.0566 0.48047-0.58194 0-1.0586-0.0916-1.0586-0.20313 0-0.1115 0.47666-0.32827 1.0586-0.48047 0.14549-0.0381 0.28368-0.0616 0.41016-0.0703zm-77.885 3.0215c0.1367-0.0314 0.0829 0.19346-0.082 0.6543-0.13426 0.37484-0.40924 0.87632-0.70313 1.3262-0.24037-0.24295-0.47724-0.49207-0.73828-0.69726 0.13979-0.11481 0.28848-0.24045 0.46289-0.4043 0.59586-0.55979 0.92385-0.84752 1.0606-0.87891zm37.928 1.4531c-0.0726-0.0113-0.13281 0.20899-0.13281 0.48633 0 0.63764 3.4625 1.6161 5.5547 1.5703 1.1704-0.0265 0.68435-0.2984-1.8516-1.0371-1.8914-0.55102-3.4976-1.0093-3.5703-1.0195zm-56.891 6.041c0.13006-2e-3 0.25743 0.01 0.38086 0.0508 0.0722 0.0241 0.14224 0.0525 0.21094 0.084-0.0159-2e-3 -0.029-2e-3 -0.0449-4e-3 -0.37661-0.0498-0.61744-0.0763-0.86914-0.10351 0.10784-0.014 0.21644-0.0256 0.32227-0.0274zm17.252 4.6816c-0.34212-0.013-0.66698 0.0627-0.96679 0.23047-0.83948 0.46976-0.84084 0.53623-0.0293 0.84766 0.51647 0.19805 0.74464 0.12173 0.55469-0.18555-0.42501-0.68768-0.43695-0.69024 2.7871 0.53516 1.5307 0.58178 3.0788 1.04 3.4394 1.0195 0.36057-0.0189-0.29707-0.37842-1.4609-0.79492-1.1639-0.41651-2.625-1.0211-3.248-1.3438-0.37353-0.19344-0.73405-0.29555-1.0762-0.3086zm103.27 5.9473c0.0664-3.9e-4 0.0631 0.0766-0.0234 0.24023-0.73735 1.3942-1.4552 2.1503-1.7559 1.8496-0.16063-0.16063 0.26467-0.82019 0.94336-1.4668 0.42411-0.40415 0.72532-0.6224 0.83593-0.62305zm-96.199 4.4805c0.6375-4e-3 1.3065 0.23031 1.4863 0.52148 0.41628 0.67355-0.80928 0.67355-1.8516 0-0.64517-0.41695-0.57704-0.5149 0.36523-0.52148zm90.102 0.76953c0 0.38634-5.9633 4.5137-6.5215 4.5137-0.29215 0-0.41861-0.11482-0.27929-0.2539 0.55846-0.55847 6.8008-4.4683 6.8008-4.2598zm-8.1172 1.9238c0.24563-0.0498 0.18877 0.0878-0.15039 0.44922-0.89828 0.95799-9.7188 3.6771-9.7188 2.9961 0-0.11112 1.9627-0.83999 4.3633-1.6191 2.4005-0.77911 4.7217-1.5504 5.1582-1.7148 0.15017-0.0566 0.26578-0.0947 0.34766-0.11133zm-71.689 1.1562c0.039-0.0255 0.35502 0.12095 0.97851 0.41797 1.6194 0.77125 1.9202 1.0156 1.248 1.0156-0.28384 0-0.97812-0.36989-1.543-0.82226-0.48416-0.3879-0.72265-0.58586-0.68359-0.61133zm71.607 1.9785c0.29102 0 0.17091 0.23176-0.26563 0.51368-0.43646 0.28195-1.0313 0.51172-1.3223 0.51172-0.29103 0-0.17091-0.22981 0.26562-0.51172 0.43646-0.28196 1.0313-0.51368 1.3223-0.51368zm-71.004 0.0332c0.14442 3e-3 0.39642 0.0738 0.77149 0.23437 0.50925 0.21808 2.3096 0.44853 4 0.51172 1.6903 0.0631 3.3566 0.40331 3.7031 0.75586 0.49198 0.50052 0.29355 0.55769-0.9043 0.26172-1.1786-0.2914-1.436-0.22155-1.1133 0.30078 0.53329 0.8629-2.9352 0.2889-5.1367-0.84961-1.2039-0.62254-1.7536-1.2239-1.3203-1.2148zm72.59 1.0254-1.248 1.0488c-1.2539 1.0544-3.0379 1.4668-2.4863 0.57421 0.16214-0.26229 1.0675-0.73541 2.0137-1.0508zm0.79687 1.2559c0.43259 0.0683 0.87564 0.49615 1.6543 1.4394 0.81124 0.98268 1.7608 2.5001 2.1113 3.373 0.35074 0.87292 0.98579 1.9952 1.4102 2.4941 1.6234 1.9087 2.778 10.21 1.8848 13.545-0.47656 1.7795-0.98821 0.87354-2.0391-3.6055-1.2094-5.1548-3.009-8.9555-5.9453-12.561-2.48-3.0448-2.4808-2.9943 0.0859-4.4551 0.32206-0.18328 0.57834-0.27143 0.83789-0.23047zm-17.727 0.38867h1.0586l-1.0586 0.45508c-0.58194 0.2502-1.5333 0.45508-2.1152 0.45508h-1.0586l1.0586-0.45508c0.58194-0.25021 1.5333-0.45508 2.1152-0.45508zm-58.66 0.98437c0.43646 0 0.64468 0.23839 0.46485 0.5293-0.17991 0.29102-0.68269 0.5293-1.1192 0.5293-0.43645 0-0.64662-0.23835-0.46679-0.5293 0.1799-0.29102 0.68463-0.5293 1.1211-0.5293zm52.148 0.041c0.74316 5e-3 0.92351 0.16816 0.42773 0.48828-0.43646 0.28195-2.1028 0.48705-3.7031 0.45508l-2.9102-0.0586 2.3809-0.42383c1.7555-0.31238 3.0615-0.46562 3.8047-0.46094zm17.508 0.13477c0.18022 0.018 0.33349 0.0613 0.44922 0.13281 0.38653 0.23886-0.25579 0.84146-1.709 1.6016-2.9679 1.5525-3.8804 1.6249-3.1445 0.25 0.54441-1.0172 3.1428-2.1105 4.4043-1.9844zm-49.787 0.66796c0.31973-4e-3 0.60899 0.0671 0.71485 0.23829 0.17196 0.27817-0.17837 0.50585-0.77735 0.50586-0.59917 0-1.0879-0.0949-1.0879-0.20899 0-0.31365 0.61751-0.52842 1.1504-0.53516zm-12.654 0.29883c0.61334 0.0471 3.1434 1.8036 4.3613 3.1055 1.4042 1.501 1.2364 1.4361-1.4551-0.55859-1.6731-1.24-3.043-2.344-3.043-2.4551 0-0.0693 0.0491-0.0985 0.13672-0.0918zm53.455 0.13867c0.6172-1.5e-4 -0.34873 0.48549-2.8828 1.2656-3.1581 0.97228-9.8987 2.0307-15.262 2.3965-4.7493 0.32391-13.16 0.34067-13.977 0.0274-2.2994-0.88233-0.0857-1.2656 7.3066-1.2656 9.0461 0 17.603-0.72364 21.99-1.8574 1.514-0.39129 2.4539-0.56631 2.8242-0.56641zm-59.602 0.30665h2.4102c3.1644 0 7.067 2.8114 9.5156 6.8516 1.5979 2.6366 1.7365 3.2009 1.5996 6.5644-0.18255 4.4849-1.6758 8.2114-4.1621 10.395-1.9852 1.743-3.1179 2.058-2.6055 0.72266 1.0237-2.6677 1.4608-5.9123 1.293-9.5762-0.23584-5.148-2.5023-10.207-5.8613-13.082zm31.141 0.0605c2.5705-0.0302 3.461 0.1128 2.9102 0.46875-0.93003 0.60106-3.4142 0.60106-5.291 0-0.947-0.30312-0.27086-0.43677 2.3809-0.46875zm-7.9902 0.2461c0.27458 0.0295 0.59541 0.18546 0.85156 0.49414 0.53159 0.64047 0.50077 0.78711-0.17187 0.78711-0.45494 0-0.96542-0.2212-1.1328-0.49219-0.3313-0.53606-5e-3 -0.83829 0.45312-0.78906zm46.41 0.0332c0.85647-0.018 1.557 0.83569 3.8809 3.6133 4.0472 4.8374 8.2817 18.128 7.5976 23.848l-0.18554 1.5625-2.9024-2.9102c-1.5962-1.6004-3.9273-4.0998-5.1797-5.5547-1.2525-1.4549-2.1304-2.3481-1.9512-1.9844 0.17915 0.36359 0.0737 0.66015-0.23437 0.66015-0.30803 0-0.56055-0.35658-0.56055-0.79297 0-0.58261-0.60568-0.79296-2.2793-0.79296-2.8953 0-4.4142 0.9988-3.6797 2.4219 0.28838 0.55892 0.42951 1.2821 0.3125 1.6055-0.22148 0.61251 8.7228 10.781 13.318 15.143 1.6781 1.5926 2.5882 2.8768 2.4902 3.5098-0.085 0.54879 0.2398 1.1474 0.7207 1.332 0.72102 0.27666 0.82153 0.0792 0.57227-1.125-0.1663-0.80349-0.17285-1.1624-0.0156-0.79688 0.15875 0.36548 0.53087 0.5156 0.82813 0.33203 0.35339-0.21846 0.40968 0.26502 0.16016 1.4004-0.37455 1.7046-1.7875 5.3248-1.8281 4.6836-0.0113-0.17991-0.87977 0.48245-1.9297 1.4726-1.7921 1.6901-5.4722 3.9076-6.4023 3.8574-0.2298-0.0113 0.65347-1.0009 1.9629-2.1973 1.3094-1.1964 1.786-1.7822 1.0586-1.3008-7.2904 4.8245-12.213 5.9948-25.66 6.0996-6.957 0.0544-9.1118-0.11837-12.086-0.96875h-2e-3c-1.9902-0.56928-3.8926-1.2502-4.2285-1.5117-0.336-0.26155-1.801-0.76333-3.2559-1.1152-1.4548-0.35187-3.1212-0.94498-3.7031-1.3184-0.58194-0.37341-2.0099-0.98474-3.1738-1.3594-6.7772-2.1813-17.086-8.3167-19.076-11.354-0.85843-1.3101-0.92491-7.5578-0.0918-8.627 0.28347-0.36359 1.1462-0.66016 1.916-0.66016 0.76973 0 2.2871-0.60384 3.373-1.3418 2.4255-1.6482 2.6269-0.83743 0.25586 1.0312-0.94564 0.74532-1.4163 1.3581-1.0449 1.3613 0.37153 3e-3 1.7253-1.0437 3.0078-2.3262 3.5367-3.5367 4.8567-9.2822 3.416-14.861-0.30047-1.1639-0.7835-3.0685-1.0742-4.2324-0.29065-1.1639-0.89057-2.6716-1.334-3.3516-0.44346-0.67994-0.70663-1.3383-0.58399-1.4609 0.12246-0.12245 2.6999 0.16641 5.7285 0.64063 4.1395 0.64826 6.755 1.4312 10.533 3.1562 2.7643 1.2621 6.923 2.8413 9.2422 3.5078 4.199 1.2068 4.2088 1.2132 2.1172 1.5059-2.0836 0.2914-2.0746 0.29564 1.0742 0.74219 4.0091 0.56848 12.955-0.47727 15.596-1.8242 1.962-1.0009 6.3594-5.3824 6.3594-6.3359 0-0.29367 0.83313-0.89359 1.8516-1.334 1.0184-0.44036 2.6643-1.1538 3.6582-1.584 0.62114-0.26879 1.0423-0.45668 1.4316-0.46484zm-44.037 0.18945c0.29102 0 0.67564 0.23835 0.85547 0.5293 0.1799 0.29102 0.0879 0.5293-0.20313 0.5293-0.29102 0-0.67564-0.23835-0.85547-0.5293-0.1799-0.29102-0.0879-0.5293 0.20313-0.5293zm-6.6387 2e-3c1.0669 0 1.9394 0.23186 1.9394 0.51563 0 0.4557-3.0651 0.18098-3.6602-0.32813-0.12132-0.10355 0.65378-0.1875 1.7207-0.1875zm62.143 0.0488c0.90412 0.21138 5.6946 4.6092 8.2813 7.6582 3.8896 4.5848 5.809 8.6584 5.8301 12.373 0.0189 3.1507-1.0859 6.5313-2.0293 6.2168-0.31824-0.1062-0.96927 0.29053-1.4473 0.88086-0.81524 1.0068-3.6022 2.3161-5.1211 2.4062-0.37304 0.0227-0.80022-0.28053-0.95118-0.67383-0.16138-0.42104-0.77625-0.61966-1.4941-0.48242-1.0613 0.20296-1.2626-0.0312-1.5547-1.7988-0.55053-3.332-0.40445-6.4191 0.31445-6.6582 0.45615-0.15156 0.70472-1.8476 0.80469-5.4668 0.12812-4.646-0.0342-5.7623-1.4043-9.7441-0.85198-2.4733-1.4614-4.5857-1.3555-4.6953 0.0239-0.0248 0.0667-0.0297 0.12695-0.0156zm-41.158 0.0176c0.23974 0 0.48026 0.0361 0.66211 0.10938 0.36359 0.14664 0.0653 0.26757-0.66211 0.26757-0.72744 0-1.0239-0.12093-0.66015-0.26757 0.18179-0.0733 0.42041-0.10938 0.66015-0.10938zm21.348 0.66211c0.12161-4e-3 0.19632 5e-3 0.21875 0.0273 0.63182 0.63187-1.2297 1.8275-4.1074 2.6387l-2.9102 0.82031 2.6465-0.30469 2.6445-0.30664-1.2871 1.377c-0.93049 0.99512-1.4002 1.1977-1.6914 0.72657-0.29443-0.4766-0.49879-0.40286-0.75977 0.27734-0.47792 1.2454-3.0217 2.5039-5.998 2.9688-2.9756 0.46473-3.1461 0.39149-2.8379-1.2207l0.24609-1.2852-7.5918-0.20898c-4.9482-0.13644-8.0965-0.45832-9.0449-0.92774-3.0076-1.4888-1.5924-1.7799 6.9492-1.4277l8.4043 0.3457 7.5059-1.8984c3.6123-0.91437 6.762-1.5719 7.6133-1.6016zm-63.84 0.58594c0.21799 7e-3 0.43586 0.0308 0.6543 0.0703 2.6385 0.47694 4.9399 1.7301 4.6348 2.5254-0.14098 0.36699 0.42325 1.6792 1.2539 2.916 1.3916 2.072 3.1588 6.9091 3.1406 8.5957-0.0151 1.3854-1.661 5.5082-3.2422 8.1191-1.0584 1.7478-2.7086 3.3924-4.8633 4.8496-1.7936 1.213-3.44 2.2263-3.6582 2.25-0.21808 0.0227-0.40468-0.61191-0.41602-1.4121-0.0302-2.0876-3.1773-7.0745-5.2168-8.2656-0.95527-0.5579-2.4888-1.1734-3.4082-1.3691-2.1364-0.45495-2.0564-1.5444 0.49024-6.6133 4.1127-8.1861 7.3611-11.77 10.631-11.666zm24.02 0.33594c0.18379-8e-3 0.39304 0.027 0.58398 0.10351 0.42206 0.16895 0.29808 0.29266-0.31836 0.31836-0.55771 0.0227-0.8711-0.1016-0.69531-0.27734 0.0879-0.0879 0.24589-0.13698 0.42969-0.14453zm21.088 5.7539c2.4897 0 4.2637 0.22021 4.2637 0.5293 0 0.30538-1.6658 0.5293-3.9375 0.5293-2.1651 0-4.0838-0.23835-4.2637-0.5293-0.2075-0.336 1.2298-0.5293 3.9375-0.5293zm51.637 4.3672c0.74183-0.0401 3.8653 2.5594 5.3633 4.5234 2.4653 3.2322 3.3601 6.7672 3.7129 14.67 0.48782 10.927-1.4522 18.548-5.3262 20.934-1.7136 1.0554-5.5689 1.2651-7.2988 0.39844-1.3788-0.69075-2.7458-4.869-2.4102-7.3711 0.22337-1.6642-0.12745-3.2932-1.5137-7.0156-2.3455-6.2986-2.3353-6.6934 0.17383-6.7148 1.0912-8e-3 3.2862-0.66425 4.877-1.4551 5.4008-2.6849 6.5858-7.6359 3.5-14.613-0.75972-1.7178-1.2963-3.2076-1.1934-3.3106 0.0271-0.0271 0.0658-0.0422 0.11524-0.0449zm-45.449 6.375c-0.92354-0.0136-1.4018 0.35996-2.4609 1.5195-0.86918 0.95165-1.5801 2.0197-1.5801 2.373 0 0.87496 15.308 16.134 15.85 15.799 0.23735-0.14665 0.7244 0.0881 1.084 0.52148 0.72749 0.87659 1.584 1.0461 1.584 0.3125 0-0.26192-4.0317-4.1311-8.959-8.5957-8.5421-7.7401-8.9179-8.1615-8.0742-9.0938 1.6774-1.8535 2.6019-2.0346 4.7676-0.92969 1.9128 0.97584 7.433 6.6952 12.812 13.275 4.2227 5.1652 4.038 4.6612 2.0293 5.5332-0.98075 0.42577-1.4267 0.77434-0.99023 0.77539 0.43646 8e-4 1.3897-0.33808 2.1172-0.7539 1.8418-1.0529 2.6445-0.97149 2.6445 0.26562 0 0.58783-0.35202 1.0566-0.79297 1.0566-0.43646 0-0.79493 0.26456-0.79493 0.58789 0 0.71441-3.2797 0.20185-5.418-0.84765-1.3597-0.66724-1.4174-0.64937-0.91407 0.29101 0.29518 0.55181 0.99267 1.2473 1.5488 1.5449 1.3346 0.71429 4.7778 0.66229 6.1074-0.0918 2.6856-1.5229 2.4133-2.2073-3.3086-8.3496-11.349-12.183-14.056-14.712-16.141-15.066-0.44469-0.0757-0.80348-0.12243-1.1113-0.12695zm19.877 0.0176c0.48811 6e-3 0.96496 0.37927 1.6172 1.2148 0.64977 0.83263 3.3846 3.8866 6.0762 6.7852 4.7067 5.0689 4.8926 5.3641 4.8926 7.7168 0 2.3024-0.27651 3.1504-1.0274 3.1504-0.17726 0-3.4321-3.1563-7.2324-7.0137-6.7376-6.8386-8.0723-8.8428-7.0215-10.543 0.2366-0.38252 0.61685-0.7151 0.8457-0.74023 0.22904-0.0265 0.83747-0.23075 1.3516-0.45703 0.172-0.0757 0.33535-0.11544 0.49805-0.11328zm-37.957 1.4082c-2.4017 0-2.9724 0.20158-3.8984 1.3789-1.3045 1.6584-0.9741 2.5022 1.9805 5.0566 1.1235 0.97134 4.123 4.1469 6.666 7.0566 5.7523 6.5819 8.5423 9.2175 10.729 10.133 2.0945 0.87685 2.3771 0.88046 3.4375 0.0508 0.46488-0.36359 0.99962-1.4049 1.1875-2.3144 0.30236-1.4632-0.0376-2.1237-2.9375-5.7305-1.8036-2.242-5.77-6.6764-8.8144-9.8535l-5.5352-5.7773zm-45.594 0.57227c1.0958-0.0503 4.6113 1.3365 4.6113 1.8184 0 0.36963-1.614-0.0742-3.9668-1.0898-1.0407-0.44912-1.2628-0.70021-0.64453-0.72851zm45.205 0.14062c0.53675 0.0119 1.0936 0.0922 1.627 0.25195 1.5814 0.47377 3.4942 2.2086 8.8633 8.0391 3.7656 4.0891 7.2927 8.2708 7.8379 9.293 0.96881 1.8166 0.96881 1.8812 0 2.8594-1.3012 1.3138-1.8313 1.2979-3.8242-0.125v-2e-3c-2.1131-1.5088-17.535-18.123-17.535-18.891 0-0.88205 1.421-1.4616 3.0312-1.4258zm-48.057 0.94922c1.7179 0.0621 3.7258 0.81064 5.9414 2.2676 3.5582 2.3398 5.7133 5.8183 5.793 9.3555 0.0302 1.2771-0.19229 5.5367-0.49023 9.4648-0.29821 3.9282-0.50141 7.499-0.45118 7.9356 0.0503 0.43646-0.33128 2.1781-0.84961 3.8711-0.78232 2.5548-1.2306 3.203-2.6367 3.8144-0.93173 0.40517-1.3368 0.74979-0.90039 0.76563 0.70537 0.0265 0.70537 0.0871 0 0.54297-1.0385 0.67109-3.0247 0.67109-3.4395 0-0.1799-0.29103-0.0756-0.5293 0.23242-0.5293 0.30804 0 0.56055-0.23835 0.56055-0.5293 0-0.29102-0.732-0.52929-1.627-0.52929-2.0637 0-3.4204-1.4939-4.8086-5.291-0.58507-1.6004-1.5434-4.218-2.1289-5.8184-1.3734-3.7544-1.9681-15.891-0.98047-20.008 0.86643-3.6117 2.922-5.4159 5.7852-5.3125zm101.51 8.5996c0.0329 6e-3 0.0668 0.0195 0.10156 0.041 0.27818 0.17197 0.37107 0.66272 0.20703 1.0898-0.41964 1.0936-0.71289 0.96479-0.71289-0.3125 0-0.52424 0.17422-0.85851 0.4043-0.81836zm-80.422 9.123c0.44839-0.0654 1.1056 0.33077 2.0644 1.0781 2.6396 2.0574 12.964 7.5078 18.699 9.8711 6.0108 2.4769 16.212 5.4261 21.426 6.1934 2.3278 0.34243 7.0903 0.63509 10.582 0.65039 5.7863 0.0265 6.8368-0.12868 11.871-1.7402 3.5272-1.1292 6.7543-2.5934 8.9277-4.0508l3.4043-2.2832-0.32813 1.6348c-0.85338 4.2667-4.9933 11.179-9.3809 15.664-3.6966 3.7786-6.2517 5.5119-11.582 7.8555-8.0238 3.5278-13.756 4.2017-26.289 3.0918l-3.2715-0.28906 0.28321-3.5332c0.22601-2.7999 0.0564-4.1351-0.82032-6.4414-1.4117-3.7129-5.2803-8.6359-8.2812-10.539-1.2833-0.81385-2.1959-1.6166-2.0293-1.7832 0.37606-0.37606-4.8518-1.9629-6.4668-1.9629-1.5799 0-5.6046 1.7567-6.502 2.8379-0.39523 0.47622-0.89387 0.86524-1.1094 0.86524-0.67105 0-2.1261-8.5416-2.1172-12.432 7e-3 -3.1862 0.17261-4.5786 0.91993-4.6875zm8.1113 14.012c0.1838-8e-3 0.39303 0.025 0.58399 0.10156 0.42202 0.16894 0.29613 0.29499-0.32031 0.32031-0.55771 0.0227-0.86919-0.1016-0.69336-0.27734 0.0879-0.0879 0.24589-0.13698 0.42968-0.14453zm-0.81445 1.0996c1.523-0.0958 4.8293 0.53232 6.918 1.4551 3.1106 1.3744 7.8877 5.8438 6.2461 5.8438-0.16592 0-1.4158-0.93691-2.7773-2.082-2.9407-2.4731-6.89-4.2656-9.3965-4.2656-0.99428 0-1.8086-0.26918-1.8086-0.59766 0-0.2085 0.31069-0.32156 0.81836-0.35352zm0.11719 1.5176c1.0921 0.0215 2.2647 0.19562 3.4805 0.53321 1.1184 0.31067 1.8947 0.70102 1.7266 0.86914-0.16819 0.16819 0.74046 0.80516 2.0195 1.416 1.2791 0.61089 3.7715 2.4629 5.5371 4.1152 2.6382 2.4689 3.3112 3.455 3.7773 5.5352 0.67337 3.0046 0.29882 5.7396-1.0996 8.0391-1.41 2.3185-2.0918 2.0941-2.0918-0.6875 0-1.2992-0.36833-3.448-0.81836-4.7734-0.45003-1.3254-0.69278-2.6126-0.53906-2.8613 0.40032-0.64777-2.4843-4.4653-4.5859-6.0684-4.0629-3.099-9.2978-3.9159-12.309-1.9219-2.1508 1.4244-2.423 1.3337-1.7559-0.58008 0.82746-2.3737 3.3818-3.6798 6.6582-3.6152zm67.598 3.1465c0.16104 2e-3 0.23698 0.21594 0.2246 0.65039-0.0525 1.8479-1.6039 6.9435-2.6094 8.5703-1.7831 2.8851-5.5382 5.8704-9.0234 7.1738-1.7509 0.6548-3.3123 1.3992-3.4688 1.6523-0.35565 0.57547-6.5703 0.6143-6.5703 0.041 0-0.23055 1.3698-0.88641 3.043-1.4551 3.984-1.354 9.9713-5.2947 12.494-8.2246 1.1052-1.2835 2.7638-3.6995 3.6856-5.3691 1.1096-2.0101 1.8703-3.0424 2.2246-3.0391zm-67.43 0.58398c0.18379-8e-3 0.39302 0.027 0.58398 0.10352 0.42202 0.16894 0.29613 0.29266-0.32031 0.31836-0.55771 0.0227-0.86915-0.1016-0.69336-0.27735 0.0879-0.0879 0.24589-0.13697 0.42969-0.14453zm0.0391 0.99219c2.8873 0 5.1927 1.0941 7.252 3.4394 4.0999 4.6695 5.001 9.8213 3.2949 18.832-1.8162 9.5918-2.8404 12.544-5.2285 15.068-0.57169 0.60431-1.2098 1.6353-1.418 2.291-0.76282 2.4034-6.5948 3.9163-10.221 2.6523-1.048-0.36548-2.0089-1.2852-2.6777-2.5684-0.98403-1.888-1.0106-2.4544-0.47461-10.045 0.50185-7.1075 0.46419-8.3716-0.32421-10.873-0.75459-2.3939-0.80309-3.4067-0.3125-6.5684 0.31899-2.056 0.43447-3.9745 0.25585-4.2637-0.35792-0.57887 0.95918-3.4568 2.2617-4.9414 1.2501-1.4249 5.2631-3.0234 7.5918-3.0234zm66.176 8.7305-0.92969 1.4707c-0.51095 0.80924-1.062 1.3384-1.2246 1.1758-0.16252-0.16252 0.25423-0.82406 0.92774-1.4707zm0.86133 0.68359 0.36914 1.9707c0.89057 4.7471-0.72463 18.752-2.2793 19.762-0.28233 0.18331-0.80591 1.2315-1.1641 2.3301-0.3583 1.0985-1.2763 2.74-2.0391 3.6465-3.0526 3.6278-6.402 4.457-10.492 2.5996-1.2008-0.54528-2.3497-1.2594-2.5527-1.5879-0.20296-0.32844-0.43539-2.6741-0.51563-5.2129-0.10961-3.4696-0.49318-5.5204-1.5469-8.252-0.77103-1.9987-1.4024-4.3273-1.4024-5.1758 0-1.4058 0.0995-1.4899 1.1172-0.94531 3.0949 1.6564 15.145-2.8724 18.703-7.0293zm-48.814 2.0039c0.0238 0.0118 0.0444 0.0408 0.0605 0.0859 0.26722 0.74623-0.88177 4.5714-1.2598 4.1934-0.13569-0.13568 0.0389-1.2828 0.38867-2.5488 0.3059-1.1078 0.64408-1.8134 0.81055-1.7305zm44.914 27.732c1.207 0-1.9115 4.0699-3.6602 4.7773-0.60567 0.24492-1.6964 0.43701-2.4238 0.42578-1.1676-0.0189-1.1188-0.0866 0.40821-0.57617 0.9513-0.30501 2.5563-1.4697 3.5684-2.5898 1.012-1.1202 1.9612-2.0371 2.1074-2.0371zm-9.4199 2.7051c0.26308 0 0.75617 0.15588 1.4844 0.46875 1.0201 0.43835 1.0178 0.45632-0.0996 0.49218-0.63749 0.0189-1.3065-0.20139-1.4863-0.49218-0.19336-0.31287-0.16152-0.46875 0.10157-0.46875z" fill="#ffcb47" stroke-width=".52905"/>
 </g>
</svg>
