<?xml version="1.0" encoding="UTF-8"?>
<!-- Created with Inkscape (http://www.inkscape.org/) -->
<svg width="270.99mm" height="152.54mm" version="1.1" viewBox="0 0 270.99 152.54" xmlns="http://www.w3.org/2000/svg">
 <g transform="translate(30.987 -66.26)">
  <rect x="-30.686" y="66.561" width="270.39" height="151.93" ry="0" fill="#7edf80" />
  <path transform="scale(.26458)" d="m-116.69 251.17v111.58l79.947-23.488c43.972-12.919 80.491-23.49 81.154-23.49 0.66286 0 10.7 10.124 22.305 22.496 11.605 12.372 22.31 22.496 23.789 22.496 2.1617 0 48.284-21.701 78.492-36.932 6.1236-3.0873 6.1864-3.0352 25.445 20.238 17.612 21.284 19.692 23.076 23.684 20.428 2.4065-1.5965 14.769-11.525 27.471-22.064 12.702-10.539 24.159-19.829 25.461-20.643 1.3015-0.81411 8.0411 8.7471 14.977 21.246 6.9355 12.499 13.339 22.712 14.232 22.695 0.89333-0.0159 8.1892-9.2015 16.211-20.412 8.0217-11.21 22.209-30.879 31.529-43.707 19.473-26.802 15.653-27.38 36.057 5.4727l12.715 20.473 22.074-10.854c12.14-5.9695 22.809-10.871 23.709-10.893s5.5587 11.716 10.354 26.082l8.7188 26.121 39.764-24.871c21.87-13.679 40.038-25.107 40.375-25.396 0.33675-0.28899 6.92 3.2735 14.629 7.916 7.7089 4.6422 14.996 8.4394 16.195 8.4395 1.1992 0 9.1716-5.9983 17.717-13.33 8.5452-7.3318 16.576-13.33 17.844-13.33 1.2678 0 9.2113 5.2488 17.654 11.664 8.443 6.4153 16.395 11.664 17.668 11.664s12.591-7.1236 25.15-15.83c12.56-8.7066 23.35-15.83 23.979-15.83 0.62856 0 4.5144 3.7497 8.6367 8.332 4.1223 4.5825 8.6564 8.332 10.074 8.332s13.708-7.0594 27.312-15.688c13.604-8.6281 25.974-15.52 27.488-15.314 1.514 0.20591 33.757 13.077 71.65 28.602l68.896 28.227v-80.434z" fill="#141b41" stroke-width="3.4041"/>
 </g>
</svg>
